<?xml version="1.0" encoding="utf-8"?>
<!-- Generator: Adobe Illustrator 20.1.0, SVG Export Plug-In . SVG Version: 6.00 Build 0)  -->
<svg version="1.1" id="Layer_1" xmlns="http://www.w3.org/2000/svg" xmlns:xlink="http://www.w3.org/1999/xlink" x="0px" y="0px"
	 viewBox="0 0 224.2 229" style="enable-background:new 0 0 224.2 229;" xml:space="preserve">
<style type="text/css">
	.st0{fill-rule:evenodd;clip-rule:evenodd;fill:#4A87C4;}
	.st1{clip-path:url(#SVGID_2_);fill-rule:evenodd;clip-rule:evenodd;fill:#F7BB55;}
	.st2{clip-path:url(#SVGID_2_);fill-rule:evenodd;clip-rule:evenodd;fill:#606062;}
	.st3{clip-path:url(#SVGID_2_);fill-rule:evenodd;clip-rule:evenodd;fill:#FEFEFE;}
	.st4{clip-path:url(#SVGID_2_);fill-rule:evenodd;clip-rule:evenodd;fill:#4D87C3;}
	.st5{clip-path:url(#SVGID_2_);fill-rule:evenodd;clip-rule:evenodd;fill:#A9ABAE;}
	.st6{fill-rule:evenodd;clip-rule:evenodd;fill:#FEFEFE;}
	.st7{fill-rule:evenodd;clip-rule:evenodd;fill:#606062;}
	.st8{fill-rule:evenodd;clip-rule:evenodd;fill:#8CC1E9;}
	.st9{fill-rule:evenodd;clip-rule:evenodd;fill:#DF7D1F;}
	.st10{fill-rule:evenodd;clip-rule:evenodd;fill:#57585A;}
	.st11{fill-rule:evenodd;clip-rule:evenodd;fill:#221F1F;}
	.st12{fill-rule:evenodd;clip-rule:evenodd;fill:#EBF0F1;}
	.st13{fill-rule:evenodd;clip-rule:evenodd;fill:#BDC2C6;}
	.st14{fill-rule:evenodd;clip-rule:evenodd;fill:#979C9F;}
	.st15{fill-rule:evenodd;clip-rule:evenodd;fill:#CD5200;}
</style>
<g>
	<path class="st0" d="M729.3-141.6c58.1,0,105.2,47.1,105.2,105.2S787.4,68.8,729.3,68.8C671.2,68.8,624,21.7,624-36.4
		S671.2-141.6,729.3-141.6"/>
	<g>
		<defs>
			<path id="SVGID_1_" d="M729.3-141.6c58.1,0,105.2,47.1,105.2,105.2S787.4,68.8,729.3,68.8C671.2,68.8,624,21.7,624-36.4
				S671.2-141.6,729.3-141.6"/>
		</defs>
		<clipPath id="SVGID_2_">
			<use xlink:href="#SVGID_1_"  style="overflow:visible;"/>
		</clipPath>
		<path class="st1" d="M740.7-14.8L740.7-14.8 M723.9-99.8l-14.6,0l-0.1,19l0.3,1.9l14.3-0.1L723.9-99.8z M723.9-72l-14.6,0l0,19
			l0.3,1.9l14.4-0.1L723.9-72z M732.9,10.7l-0.4,4.1l2.4-0.1c0.8-0.3,1.9-0.7,3.3-1.4c1.3,0.6,2.5,1.1,3.3,1.4l2.4,0.1l1.5,0.1
			l0.1,1.7l7.1,2.4l0.1-3.9l6.6-0.2L759,6l-6.6-0.1l0-20l0-0.7l14.6-0.1l0.1,8.9c1-1.9,5.4-5,7.2-7.5l0-94.2l-15.2,0l0-0.1l-28.7,0
			l-28.4,0l0,94.2c1.8,2.5,6.2,5.6,7.2,7.5l0.1-8.9l14.6,0.1L724,5.2C725,6.3,728.9,8.6,732.9,10.7z M735.6-14.8L735.6-14.8l2.6,0
			l2.6,0l4.7,0l0,1.4l-0.2,19c-0.3,0.1-0.5,0.3-0.9,0.4l-1.4,0c-1.2,0-3,0.2-4.8,0.3c-1.8-0.1-3.6-0.3-4.8-0.3l0,0.2
			c-1-0.1-1.8-0.3-2.4-0.7l-0.1-20.4L735.6-14.8z M744.6-99.8c0.5,0.5,0.7-0.1,0.8,0.7l-0.2,19.7c-0.3,0.2-0.4,0.3-0.6,0.4l-10.8,0
			c-2,0-1.7,0.4-2.9-0.5L730.8-95c-0.1-6,0-4,0.8-4.8l0,0L744.6-99.8L744.6-99.8z M757.2-99.8l9.8,0l0.1,19l-0.3,1.9L752.6-79
			l-0.2,0l0-18.8l0-2L757.2-99.8z M757.2-72l9.8,0l0,19l-0.3,1.9l-13.9-0.1l-0.5,0l0-19.1l0-1.7L757.2-72z M757.3-43.8l9.7,0l0,20.9
			l-8,0l0,0l-6.6-0.1l0-20.7v0L757.3-43.8z M745.2-43.8h-0.5h-13.1h-0.5V-23c1.9-0.5,4.8-0.5,7.1-0.2c2.3-0.3,5.2-0.4,7.1,0.2V-43.8
			z M730.9-51.6h14.3v0.1l0.1,0l0.2-19.5l0-0.9L734.6-72l-3.8,0.1L730.9-51.6z M723.9-43.8l-14.6,0l0,20.9l12.6,0l2-0.2L723.9-43.8z
			"/>
		<path class="st2" d="M646.7-33.4h162.1c2,0,3.6,1.6,3.6,3.6v96.4c0,2-1.6,3.6-3.6,3.6H646.7c-2,0-3.6-1.6-3.6-3.6v-96.4
			C643.1-31.8,644.8-33.4,646.7-33.4"/>
		<path class="st3" d="M653.4-16.2h149.7c1.6,0,2.9,1.3,2.9,2.9v74.4c0,1.6-1.3,2.9-2.9,2.9H653.4c-1.6,0-2.9-1.3-2.9-2.9v-74.4
			C650.5-14.9,651.8-16.2,653.4-16.2"/>
		<path class="st4" d="M679.3-1.1c6.5,0,11.8,5.3,11.8,11.8c0,6.5-5.3,11.8-11.8,11.8c-6.5,0-11.8-5.3-11.8-11.8
			C667.6,4.2,672.8-1.1,679.3-1.1"/>
		<path class="st4" d="M661.2,48.9h36.2V37.7c0-6.2-5-11.2-11.2-11.2h-13.8c-6.2,0-11.2,5-11.2,11.2V48.9z"/>
		<path class="st5" d="M714.9-4.8h77.5c1.6,0,3,1.3,3,3c0,1.6-1.3,3-3,3h-77.5c-1.6,0-3-1.3-3-3C712-3.4,713.3-4.8,714.9-4.8"/>
		<path class="st5" d="M714.9,11.2h38.8c1.6,0,3,1.3,3,3c0,1.6-1.3,3-3,3h-38.8c-1.6,0-3-1.3-3-3C712,12.5,713.3,11.2,714.9,11.2"/>
		<path class="st5" d="M714.9,27.1h77.5c1.6,0,3,1.3,3,3c0,1.6-1.3,3-3,3h-77.5c-1.6,0-3-1.3-3-3C712,28.5,713.3,27.1,714.9,27.1"/>
		<path class="st5" d="M714.9,43.1h65c1.6,0,3,1.3,3,3c0,1.6-1.3,3-3,3h-65c-1.6,0-3-1.3-3-3C712,44.4,713.3,43.1,714.9,43.1"/>
	</g>
	<rect x="709.9" y="-28.8" class="st6" width="38.7" height="8.5"/>
	<rect x="722.1" y="-41.9" class="st7" width="14.4" height="18.4"/>
	<path class="st6" d="M775.9-86.9l16.5,0l3.9,0c3.7-0.1,5.5-1.9,6.2-5.2l-0.2-2.6c-0.5-0.9-1-1.7-1.3-2.3c-1.1-0.8-2-1.5-4-1.7
		c-1.2-2.9-3.4-4.4-7.2-3.3l-1.4-1.4l-0.3-0.1l-0.2-0.2c-6.5-4.2-13.5-0.2-14.5,6.5c-0.3,0.3,0,0.1-0.6,0.3
		c-0.9,0.4-1.7,0.4-2.8,1.9c-0.8,1.2-1.2,2.6-0.8,4.2C769.9-86.9,773.3-86.8,775.9-86.9"/>
	<path class="st6" d="M650-60.9l28.5,0l6.7,0c6.4-0.2,9.5-3.3,10.7-9l-0.4-4.5c-0.8-1.5-1.7-2.9-2.3-4c-1.9-1.4-3.4-2.6-6.8-2.9
		c-2-4.9-5.9-7.5-12.5-5.7l-2.4-2.5l-0.5-0.2l-0.3-0.3c-11.3-7.2-23.3-0.4-25.1,11.3c-0.5,0.4,0,0.2-1,0.6c-1.6,0.7-3,0.6-4.9,3.3
		c-1.5,2-2.1,4.5-1.5,7.3C639.7-61,645.5-60.8,650-60.9"/>
</g>
<g>
	<path class="st8" d="M44.4,30.9l-0.6-0.3l-0.4-0.4l0.4,0.4L44.4,30.9l3.2,3.3c8.7-2.4,13.8,1,16.5,7.5c4.5,0.4,6.5,2,9.1,3.8
		l69.1,0l0,54.6l25.8,0l25.5,0.1l0,87.9c1.2-0.7,0.5-0.2,1.5-1.1c0.3-0.3,0.6-0.7,0.8-1.1c5.3-7,7.1-8,12.3-17.3
		c13.7-24.2,18.8-54.8,10.9-82.1c-8.1,2.3-28.5,1.1-38.3,1.1c-7.4,0-11.9,0.1-14.1-5.7c-2.1-6,2.2-10.7,7.1-11.6
		c0.8-7.3,4.9-11.9,10.7-13.8c7.5-2.5,14.6,1,17.6,5.1c2.6-0.7,3.7-1,6.6-0.3c-1.7-3.4-3.9-6.8-6-9.6c-2.3-3.2-4.4-5.5-6.7-8.4
		c-5.3-6.6-17.6-16.6-25-21.1c-10.4-6.3-20-10.4-32.4-13.2C108.8,2,77.9,8.1,53.3,24.9C51.2,26.4,46,30.9,44.4,30.9L44.4,30.9z"/>
	<path class="st9" d="M115.4,160.5h17.9V186h-17.9V160.5z M89,160.5h17.9V186H89V160.5z M62.6,160.5h17.9V186H62.6V160.5z
		 M115.4,125.2h17.9v25.4h-17.9V125.2z M89,125.2h17.9l0,25.4H89V125.2z M62.5,125.2h18v25.4H62.6L62.5,125.2z M115.4,90.8h17.9
		v25.5h-17.9V90.8z M89,90.8h17.9v25.5H89V90.8z M62.6,90.8h17.9l0.1,25.5H62.6V90.8z M115.4,56.9h17.9l0.1,25.5h-17.9V56.9z
		 M89,56.9h17.9v25.5H89V56.9z M76.2,50.9c4.7,0.9,8.6,5.4,9.6,10.1c0.6,2.9,0.1,6-1,8.3c-1.4,3.2-2.8,3.5-4.3,5.5v7.6H62.6
		l-0.1-5.3L53.7,77v126.9c1.5,1.7,6.5,4.2,8.9,5.6l0-12.7h17.9v20.4l8.5,2.4v-22.8h17.9v25.6c3.9,0.5,9.9,1,13.4-0.1l-4.9-0.1v-25.4
		h17.9l-0.1,24.2l9-1.9v-5.6l6,0.2l-6-0.2l0.1-7.9l-0.1-18.7l0.1-7.3v-18.7l0-6.6l0-18.8l0.1-6.2l-0.1-18.7l-0.1-10.3l0-54.6
		l-69.1,0C74,47.1,75.1,48.9,76.2,50.9L76.2,50.9z"/>
	<path class="st8" d="M53.7,203.9V77l0-8.3l-37.7,0c-2.1,6.2-4.6,11.1-6.4,18.1c-5.4,20.5-4.5,43.1,2.3,62.7
		c5.1,14.6,10.4,23.2,19.7,34.5c1.2,1.4,1.3,2,2.8,3.4c3.9,3.5,8.1,8.6,12.4,11.6C49.1,200.5,51.1,202.8,53.7,203.9L53.7,203.9z"/>
	<path class="st6" d="M16.1,68.7l37.7,0h8.8c8.5-0.3,12.5-4.3,14.1-11.9l-0.5-6c-1.1-2-2.2-3.8-3.1-5.3c-2.5-1.8-4.5-3.5-9.1-3.8
		c-2.7-6.5-7.8-10-16.5-7.5l-3.2-3.3l-0.6-0.3l-0.4-0.4c-15-9.5-30.9-0.5-33.2,14.9c-0.7,0.6,0,0.2-1.3,0.8
		c-2.1,0.9-3.9,0.8-6.5,4.3c-1.9,2.6-2.8,5.9-1.9,9.6C2.4,68.6,10.1,68.7,16.1,68.7L16.1,68.7z"/>
	<path class="st10" d="M173.9,160.8H187l0,18.7l-11.3,0l-1.8-0.1V160.8z M173.9,135.5l13.1,0l0.1,17.1l-0.3,1.7l-12.9-0.1
		L173.9,135.5z M173.9,110.5H187l0.1,17.1l-0.3,1.7l-12.9-0.1L173.9,110.5z M166.9,110.6c0.8,0.7,0.8-1.1,0.7,4.3l-0.1,14
		c-1.1,0.8-0.8,0.5-2.6,0.5l-0.7,6.2l3.4,0.1l-0.1,18.3c-1.1,0.7-3.6,0.5-5.3,0.4c-0.6,8-1.8,6.9,5.2,6.6v18.7
		c-2.1-0.6-5.7-0.4-7.8,0.2l-0.8,7.2h8.9l-0.1,18.3c-2.1,1.3-8,0.5-10.8,0.4l-0.8,7.9l2.1-0.1c3.3-1.1,13.9-6.7,15.7-8.6l0.1-17.8
		l13.1-0.1l0.1,8c0.9-1.7,4.9-4.5,6.5-6.7l0-87.9l-25.5-0.1L166.9,110.6z"/>
	<path class="st6" d="M219.1,86.4c2.7-2.2,6.3-5.8,4.7-11.7c-1.3-5.1-4.3-6.2-9.2-7.7c-2.1-3.4-1.8-4.2-5.9-5.8
		c-2.9-0.6-4-0.4-6.6,0.3c-3-4.1-10-7.7-17.6-5.1c-5.8,2-9.9,6.6-10.7,13.8c-4.9,0.9-9.2,5.7-7.1,11.6c2.1,5.9,6.6,5.7,14.1,5.7
		C190.6,87.5,211.1,88.7,219.1,86.4L219.1,86.4z"/>
	<path class="st11" d="M142.3,110.5l6,0l0,18.6l-5.9,0.1l-0.1,6.2l6,0.1l0,18.7l-5.9,0.1l0,6.6l5.9,0v18.6l-5.9,0.1l-0.1,7.3l6,0
		l0,18.6l-5.9,0.1l-0.1,7.9l6,0.2l0.1,3.5l6.4-2.2l0.1-1.5l1.3-0.1l0.8-7.9l-2.1-0.1l-0.2-18.7l4.3,0l0.8-7.2
		c2.1-0.5,5.7-0.8,7.8-0.2l-7.8,0.1l-5.1-0.1v-18.7l7.1,0l5.9,0c-7,0.3-5.8,1.3-5.2-6.6h-7.6l-0.2-18.7l9.7-0.1l0.7-6.2l-10.2,0
		l-0.2-18.7h12.4l0,0l1.1-10.4l-25.8,0L142.3,110.5z"/>
	<polygon class="st12" points="62.6,150.6 80.5,150.6 80.5,125.2 62.5,125.2 	"/>
	<polygon class="st12" points="62.6,116.3 80.6,116.3 80.5,90.8 62.6,90.8 	"/>
	<polygon class="st12" points="115.4,82.4 133.3,82.4 133.3,56.9 115.4,56.9 	"/>
	<polygon class="st12" points="89,150.6 106.9,150.6 106.9,125.2 89,125.2 	"/>
	<rect x="89" y="90.8" class="st12" width="17.9" height="25.5"/>
	<rect x="115.4" y="90.8" class="st12" width="17.9" height="25.5"/>
	<rect x="89" y="56.9" class="st12" width="17.9" height="25.5"/>
	<rect x="89" y="160.5" class="st12" width="17.9" height="25.4"/>
	<rect x="62.6" y="160.5" class="st12" width="17.9" height="25.4"/>
	<rect x="115.4" y="160.5" class="st12" width="17.9" height="25.4"/>
	<rect x="115.4" y="125.2" class="st12" width="17.9" height="25.4"/>
	<path class="st12" d="M120.3,222.3c3.8,0.1,9.4-0.4,13-1.3l0.1-24.2h-17.9v25.4L120.3,222.3z"/>
	<path class="st12" d="M89,219.6c5.2,1.7,12.1,2.3,17.9,2.7v-25.6H89V219.6z"/>
	<path class="st12" d="M62.6,209.5c4.1,2.5,12.7,6.3,17.9,7.7v-20.4H62.6L62.6,209.5z"/>
	<polygon class="st13" points="173.9,179.5 175.7,179.6 187,179.6 187,160.8 173.9,160.8 	"/>
	<polygon class="st13" points="173.9,154.2 186.8,154.2 187,152.5 187,135.5 173.9,135.5 	"/>
	<polygon class="st13" points="173.9,129.2 186.8,129.2 187,127.6 187,110.5 173.9,110.5 	"/>
	<path class="st13" d="M62.6,68.7l0,8.4c6.4,0.4,13.3,0.8,17.9-2.3l0.1-17.9h-3.9C75.1,64.4,71.1,68.5,62.6,68.7L62.6,68.7z"/>
	<path class="st14" d="M164.9,129.3c1.8,0.1,1.5,0.3,2.6-0.5l-2.5,0.1l1.9-18.4h-12.4l0.2,18.7L164.9,129.3z"/>
	<polygon class="st13" points="167.6,205.2 167.6,186.8 158.8,186.8 156.8,205.3 	"/>
	<path class="st13" d="M173.8,204.8c2.9-1.1,11.1-8,13.3-10l-0.1-8l-13.1,0.1L173.8,204.8z"/>
	<path class="st14" d="M162.3,154.2c1.8,0.1,4.2,0.3,5.3-0.4l-5.3,0.1l1.9-18.5l-9.7,0.1l0.2,18.7H162.3z"/>
	<polygon class="st13" points="159.6,179.6 167.4,179.5 167.4,160.9 161.5,160.8 	"/>
	<polygon class="st14" points="159.6,179.6 161.5,160.8 154.5,160.9 154.5,179.5 	"/>
	<polygon class="st14" points="142.3,205.6 148.2,205.5 148.3,186.9 142.3,186.8 	"/>
	<polygon class="st14" points="142.3,154.2 148.2,154.2 148.3,135.5 142.3,135.5 	"/>
	<polygon class="st14" points="142.3,129.2 148.2,129.2 148.3,110.5 142.3,110.5 	"/>
	<polygon class="st14" points="142.3,179.6 148.3,179.5 148.3,160.9 142.3,160.8 	"/>
	<path class="st15" d="M76.7,56.9h3.9l-0.1,17.9c1.4-2,2.8-2.3,4.3-5.5c1-2.3,1.6-5.4,1-8.3c-1-4.6-4.9-9.2-9.6-10.1L76.7,56.9z"/>
	<path class="st12" d="M62.6,77.1l0.1,5.3h17.9v-7.6C75.9,77.9,69,77.5,62.6,77.1L62.6,77.1z"/>
	<polygon class="st13" points="167.6,153.8 167.6,135.5 164.2,135.5 162.3,154 	"/>
	<polygon class="st15" points="53.7,77 62.6,77.1 62.6,68.7 53.8,68.7 	"/>
	<path class="st14" d="M156.8,205.6c2.9,0.1,8.8,0.9,10.8-0.4l-10.7,0.1l1.9-18.5l-4.3,0l0.2,18.7L156.8,205.6z"/>
	<path class="st13" d="M167.5,128.8l0.1-14c0.1-5.4,0-3.6-0.7-4.3l0,0l-1.9,18.4L167.5,128.8z"/>
	<polygon class="st14" points="142.2,219.1 148.2,217.2 148.2,213.7 142.2,213.5 	"/>
	<polygon class="st14" points="154.6,215 158.1,213.4 156,213.5 154.7,213.5 	"/>
</g>
</svg>
