<?xml version="1.0" encoding="utf-8"?>
<!-- Generator: Adobe Illustrator 22.0.1, SVG Export Plug-In . SVG Version: 6.00 Build 0)  -->
<svg version="1.1" id="Layer_1" xmlns="http://www.w3.org/2000/svg" xmlns:xlink="http://www.w3.org/1999/xlink" x="0px" y="0px"
	 viewBox="0 0 130 130.9" style="enable-background:new 0 0 130 130.9;" xml:space="preserve">
<style type="text/css">
	.st0{clip-path:url(#SVGID_2_);}
	.st1{fill:#8FA0BC;}
	.st2{fill:#F0F3F4;}
	.st3{fill:#AFAFAF;}
	.st4{fill:#7286A3;}
</style>
<g>
	<defs>
		<circle id="SVGID_1_" cx="65" cy="66.1" r="65"/>
	</defs>
	<clipPath id="SVGID_2_">
		<use xlink:href="#SVGID_1_"  style="overflow:visible;"/>
	</clipPath>
	<g class="st0">
		<path class="st1" d="M65.1,0.4c36.3,0,65.8,29.4,65.8,65.8s-29.4,65.8-65.8,65.8S-0.7,102.5-0.7,66.1S28.8,0.4,65.1,0.4L65.1,0.4z
			"/>
		<g>
			<path class="st2" d="M100.2,25.4H30c-2.7,0-4.8,2.2-4.8,4.8V135c0,2.7,2.2,4.8,4.8,4.8h70.1c2.7,0,4.8-2.2,4.8-4.8V30.3
				C105,27.6,102.8,25.4,100.2,25.4z"/>
			<path class="st3" d="M65.5,34.9c-12.8-0.2-23.3,10-23.5,22.7c-0.1,7.2,3.1,13.8,8.2,18.1c0.3-0.3,0.7-0.6,1.1-0.8l6.9-3.8
				c0.9-0.5,1.5-1.4,1.5-2.5v-2.8c0,0-2-2.4-2.8-5.8c-0.6-0.4-1.1-1.1-1.1-1.9V55c0-0.7,0.3-1.3,0.8-1.7v-4.5c0,0-0.9-7,8.5-7
				c9.4,0,8.5,7,8.5,7v4.5c0.5,0.4,0.8,1,0.8,1.7v3.1c0,1-0.7,1.9-1.6,2.2c-0.5,1.6-1.3,3.2-2.3,4.6c-0.3,0.4-0.5,0.7-0.7,0.9v2.9
				c0,1.1,0.6,2,1.6,2.5l7.4,3.7c0.4,0.2,0.8,0.5,1.2,0.8c5-4.2,8.2-10.4,8.3-17.4C88.4,45.7,78.3,35.1,65.5,34.9L65.5,34.9z"/>
			<rect x="35.9" y="87.8" class="st3" width="56.7" height="4.6"/>
			<rect x="35.9" y="99.4" class="st3" width="56.7" height="4.6"/>
			<rect x="44.8" y="111" class="st3" width="38.9" height="4.6"/>
		</g>
		<path class="st4" d="M105,29.1v90.4c11.5-9.5,18.1-22.6,21.6-32.9l-0.6-1.7l-21-59l-1.8,0C104.3,26.6,105,27.8,105,29.1z"/>
	</g>
</g>
</svg>
