<?xml version="1.0" encoding="utf-8"?>
<!-- Generator: Adobe Illustrator 20.1.0, SVG Export Plug-In . SVG Version: 6.00 Build 0)  -->
<svg version="1.1" id="Layer_1" xmlns="http://www.w3.org/2000/svg" xmlns:xlink="http://www.w3.org/1999/xlink" x="0px" y="0px"
	 viewBox="0 0 210.5 214.5" style="enable-background:new 0 0 210.5 214.5;" xml:space="preserve">
<style type="text/css">
	.st0{fill-rule:evenodd;clip-rule:evenodd;fill:#4A87C4;}
	.st1{clip-path:url(#SVGID_2_);fill-rule:evenodd;clip-rule:evenodd;fill:#F7BB55;}
	.st2{clip-path:url(#SVGID_2_);fill-rule:evenodd;clip-rule:evenodd;fill:#606062;}
	.st3{clip-path:url(#SVGID_2_);fill-rule:evenodd;clip-rule:evenodd;fill:#FEFEFE;}
	.st4{clip-path:url(#SVGID_2_);fill-rule:evenodd;clip-rule:evenodd;fill:#4D87C3;}
	.st5{clip-path:url(#SVGID_2_);fill-rule:evenodd;clip-rule:evenodd;fill:#A9ABAE;}
	.st6{fill-rule:evenodd;clip-rule:evenodd;fill:#FEFEFE;}
	.st7{fill-rule:evenodd;clip-rule:evenodd;fill:#606062;}
</style>
<g>
	<path class="st0" d="M105.2,4c58.1,0,105.2,47.1,105.2,105.2s-47.1,105.2-105.2,105.2S0,167.4,0,109.3S47.1,4,105.2,4"/>
	<g>
		<defs>
			<path id="SVGID_1_" d="M105.2,4c58.1,0,105.2,47.1,105.2,105.2s-47.1,105.2-105.2,105.2S0,167.4,0,109.3S47.1,4,105.2,4"/>
		</defs>
		<clipPath id="SVGID_2_">
			<use xlink:href="#SVGID_1_"  style="overflow:visible;"/>
		</clipPath>
		<path class="st1" d="M116.7,130.9L116.7,130.9 M99.8,45.9l-14.6,0l-0.1,19l0.3,1.9l14.3-0.1L99.8,45.9z M99.8,73.7l-14.6,0l0,19
			l0.3,1.9l14.4-0.1L99.8,73.7z M108.8,156.4l-0.4,4.1l2.4-0.1c0.8-0.3,1.9-0.7,3.3-1.4c1.3,0.6,2.5,1.1,3.3,1.4l2.4,0.1l1.5,0.1
			l0.1,1.7l7.1,2.4l0.1-3.9l6.6-0.2l-0.1-8.8l-6.6-0.1l0-20l0-0.7l14.6-0.1l0.1,8.9c1-1.9,5.4-5,7.2-7.5l0-94.2L135,38l0-0.1
			l-28.7,0l-28.4,0l0,94.2c1.8,2.5,6.2,5.6,7.2,7.5l0.1-8.9l14.6,0.1l0.1,19.9C101,152,104.9,154.3,108.8,156.4z M111.5,130.9
			L111.5,130.9l2.6,0l2.6,0l4.7,0l0,1.4l-0.2,19c-0.3,0.1-0.5,0.3-0.9,0.4l-1.4,0c-1.2,0-3,0.2-4.8,0.3c-1.8-0.1-3.6-0.3-4.8-0.3
			l0,0.2c-1-0.1-1.8-0.3-2.4-0.7l-0.1-20.4L111.5,130.9z M120.6,45.9c0.5,0.5,0.7-0.1,0.8,0.7l-0.2,19.7c-0.3,0.2-0.4,0.3-0.6,0.4
			l-10.8,0c-2,0-1.7,0.4-2.9-0.5l-0.1-15.5c-0.1-6,0-4,0.8-4.8l0,0L120.6,45.9L120.6,45.9z M133.2,45.9l9.8,0l0.1,19l-0.3,1.9
			l-14.2-0.1l-0.2,0l0-18.8l0-2L133.2,45.9z M133.2,73.7l9.8,0l0,19l-0.3,1.9l-13.9-0.1l-0.5,0l0-19.1l0-1.7L133.2,73.7z
			 M133.3,101.9l9.7,0l0,20.9l-8,0l0,0l-6.6-0.1l0-20.7v0L133.3,101.9z M121.2,101.9h-0.5h-13.1H107v20.8c1.9-0.5,4.8-0.5,7.1-0.2
			c2.3-0.3,5.2-0.4,7.1,0.2V101.9z M106.9,94.1h14.3v0.1l0.1,0l0.2-19.5l0-0.9l-10.9-0.1l-3.8,0.1L106.9,94.1z M99.8,101.9l-14.6,0
			l0,20.9l12.6,0l2-0.2L99.8,101.9z"/>
		<path class="st2" d="M22.7,112.3h162.1c2,0,3.6,1.6,3.6,3.6v96.4c0,2-1.6,3.6-3.6,3.6H22.7c-2,0-3.6-1.6-3.6-3.6v-96.4
			C19.1,113.9,20.7,112.3,22.7,112.3"/>
		<path class="st3" d="M29.4,129.5h149.7c1.6,0,2.9,1.3,2.9,2.9v74.4c0,1.6-1.3,2.9-2.9,2.9H29.4c-1.6,0-2.9-1.3-2.9-2.9v-74.4
			C26.4,130.8,27.7,129.5,29.4,129.5"/>
		<path class="st4" d="M55.3,144.6c6.5,0,11.8,5.3,11.8,11.8c0,6.5-5.3,11.8-11.8,11.8c-6.5,0-11.8-5.3-11.8-11.8
			C43.5,149.9,48.8,144.6,55.3,144.6"/>
		<path class="st4" d="M37.2,194.6h36.2v-11.2c0-6.2-5-11.2-11.2-11.2H48.4c-6.2,0-11.2,5-11.2,11.2V194.6z"/>
		<path class="st5" d="M90.9,140.9h77.5c1.6,0,3,1.3,3,3c0,1.6-1.3,3-3,3H90.9c-1.6,0-3-1.3-3-3C87.9,142.3,89.3,140.9,90.9,140.9"
			/>
		<path class="st5" d="M90.9,156.9h38.8c1.6,0,3,1.3,3,3c0,1.6-1.3,3-3,3H90.9c-1.6,0-3-1.3-3-3C87.9,158.2,89.3,156.9,90.9,156.9"
			/>
		<path class="st5" d="M90.9,172.8h77.5c1.6,0,3,1.3,3,3c0,1.6-1.3,3-3,3H90.9c-1.6,0-3-1.3-3-3C87.9,174.1,89.3,172.8,90.9,172.8"
			/>
		<path class="st5" d="M90.9,188.7h65c1.6,0,3,1.3,3,3c0,1.6-1.3,3-3,3h-65c-1.6,0-3-1.3-3-3C87.9,190.1,89.3,188.7,90.9,188.7"/>
	</g>
	<rect x="85.9" y="116.9" class="st6" width="38.7" height="8.5"/>
	<rect x="98.1" y="103.8" class="st7" width="14.4" height="18.4"/>
	<path class="st6" d="M151.8,58.8l16.5,0l3.9,0c3.7-0.1,5.5-1.9,6.2-5.2l-0.2-2.6c-0.5-0.9-1-1.7-1.3-2.3c-1.1-0.8-2-1.5-4-1.7
		c-1.2-2.9-3.4-4.4-7.2-3.3l-1.4-1.4l-0.3-0.1l-0.2-0.2c-6.5-4.2-13.5-0.2-14.5,6.5c-0.3,0.3,0,0.1-0.6,0.3
		c-0.9,0.4-1.7,0.4-2.8,1.9c-0.8,1.2-1.2,2.6-0.8,4.2C145.9,58.8,149.2,58.9,151.8,58.8"/>
	<path class="st6" d="M26,84.8l28.5,0l6.7,0c6.4-0.2,9.5-3.3,10.7-9l-0.4-4.5c-0.8-1.5-1.7-2.9-2.3-4c-1.9-1.4-3.4-2.6-6.8-2.9
		c-2-4.9-5.9-7.5-12.5-5.7l-2.4-2.5L46.9,56l-0.3-0.3C35.2,48.5,23.2,55.3,21.4,67c-0.5,0.4,0,0.2-1,0.6c-1.6,0.7-3,0.6-4.9,3.3
		c-1.5,2-2.1,4.5-1.5,7.3C15.6,84.7,21.4,84.8,26,84.8"/>
</g>
</svg>
