<?xml version="1.0" encoding="utf-8"?>
<!-- Generator: Adobe Illustrator 22.0.1, SVG Export Plug-In . SVG Version: 6.00 Build 0)  -->
<svg version="1.1" id="Layer_1" xmlns="http://www.w3.org/2000/svg" xmlns:xlink="http://www.w3.org/1999/xlink" x="0px" y="0px"
	 viewBox="0 0 130 130.9" style="enable-background:new 0 0 130 130.9;" xml:space="preserve">
<style type="text/css">
	.st0{fill:#64BC62;}
	.st1{fill:#4B9B49;}
	.st2{fill:#FFFFFF;}
	.st3{fill:#334A5E;}
	.st4{fill:#CFD6E0;}
	.st5{fill:#FFD05C;}
	.st6{fill:#55C0EB;}
</style>
<path class="st0" d="M64.8,1.3c35.8,0,64.8,29,64.8,64.8s-29,64.8-64.8,64.8S0,101.9,0,66.1S29,1.3,64.8,1.3L64.8,1.3z"/>
<path class="st1" d="M128.8,75.8l-18-37.5L45.1,58.3L18.7,93.9l34.1,35.8c3.9,0.7,7.9,1.1,12,1.1C97.3,130.9,124.1,107,128.8,75.8z"
	/>
<g>
	<path class="st2" d="M107.3,93.9H22.2c-1.9,0-3.5-1.5-3.5-3.5V41.7c0-1.9,1.5-3.5,3.5-3.5h85.2c1.9,0,3.5,1.5,3.5,3.5v48.7
		C110.9,92.4,109.2,93.9,107.3,93.9L107.3,93.9z"/>
	<polygon class="st3" points="18.7,49.1 110.8,49.1 110.8,61.9 18.7,61.9 18.7,49.1 	"/>
	<polygon class="st4" points="25.5,72.1 49.7,72.1 49.7,74.2 25.5,74.2 25.5,72.1 	"/>
	<polygon class="st4" points="25.5,77.6 49.7,77.6 49.7,79.7 25.5,79.7 25.5,77.6 	"/>
	<polygon class="st4" points="25.5,83.1 49.7,83.1 49.7,85.2 25.5,85.2 25.5,83.1 	"/>
	<path class="st5" d="M96.3,73.1c3.2,0,5.7,2.6,5.7,5.7c0,3.2-2.6,5.7-5.7,5.7c-3.2,0-5.7-2.6-5.7-5.7
		C90.6,75.7,93.1,73.1,96.3,73.1L96.3,73.1z"/>
	<path class="st6" d="M87.2,73.1c3.2,0,5.7,2.6,5.7,5.7c0,3.2-2.6,5.7-5.7,5.7c-3.2,0-5.7-2.6-5.7-5.7
		C81.5,75.7,84.1,73.1,87.2,73.1L87.2,73.1z"/>
</g>
</svg>
