<?xml version="1.0" encoding="utf-8"?>
<!-- Generator: Adobe Illustrator 19.0.0, SVG Export Plug-In . SVG Version: 6.00 Build 0)  -->
<svg version="1.1" id="Layer_1" xmlns="http://www.w3.org/2000/svg" xmlns:xlink="http://www.w3.org/1999/xlink" x="0px" y="0px"
	 viewBox="0 0 80.7 80.1" style="enable-background:new 0 0 80.7 80.1;" xml:space="preserve">
<style type="text/css">
	.st0{fill:#4173A9;stroke:#4173A9;stroke-width:2;stroke-miterlimit:10;}
	.st1{fill:#29D354;}
	.st2{fill:#4173A9;}
	.st3{fill:#29D354;stroke:#29D354;stroke-width:2;stroke-miterlimit:10;}
</style>
<g id="XMLID_23_">
	<g id="XMLID_17_">
		<path id="XMLID_26_" class="st0" d="M40.1,79.4C18.4,79.4,0.8,61.7,0.8,40S18.4,0.7,40.1,0.7S79.4,18.4,79.4,40
			S61.8,79.4,40.1,79.4z M40.1,2.1c-20.9,0-38,17-38,38s17,38,38,38s38-17,38-38S61,2.1,40.1,2.1z"/>
	</g>
	<g id="XMLID_20_">
		<g id="XMLID_120_">
			<circle id="XMLID_123_" class="st1" cx="23.6" cy="40" r="5.2"/>
			<circle id="XMLID_122_" class="st2" cx="39.2" cy="40" r="5.2"/>
			<circle id="XMLID_121_" class="st2" cx="54.7" cy="40" r="5.2"/>
		</g>
	</g>
	<path id="XMLID_32_" class="st3" d="M66.4,10.9l-0.9,1c7.7,7,12.5,17,12.5,28.2C78,55.7,68.5,69.2,55,75l0.6,1.3
		c14-6,23.9-20,23.9-36.2C79.4,28.5,74.4,18.1,66.4,10.9z"/>
</g>
</svg>
