<?xml version="1.0" encoding="utf-8"?>
<!-- Generator: Adobe Illustrator 22.0.1, SVG Export Plug-In . SVG Version: 6.00 Build 0)  -->
<svg version="1.1" id="Layer_1" xmlns="http://www.w3.org/2000/svg" xmlns:xlink="http://www.w3.org/1999/xlink" x="0px" y="0px"
	 viewBox="0 0 192 251.2" style="enable-background:new 0 0 192 251.2;" xml:space="preserve">
<style type="text/css">
	.st0{fill-rule:evenodd;clip-rule:evenodd;fill:#666666;}
	.st1{fill-rule:evenodd;clip-rule:evenodd;fill:#B3B3B3;}
	.st2{fill-rule:evenodd;clip-rule:evenodd;fill:#FFFFFF;}
	.st3{fill-rule:evenodd;clip-rule:evenodd;fill:#9099AB;}
	.st4{fill-rule:evenodd;clip-rule:evenodd;fill:#E6E6E6;}
	.st5{fill-rule:evenodd;clip-rule:evenodd;fill:#838EA1;}
</style>
<g>
	<polygon class="st0" points="53.1,114.8 133.2,114.8 133.2,249.6 94.7,222.4 53.1,249.6 	"/>
	<path class="st1" d="M95.7,184.9c49.9,0,90.7-40.8,90.7-90.7c0-50-40.8-90.8-90.7-90.8c-50,0-90.8,40.8-90.8,90.8
		C4.9,144.1,45.7,184.9,95.7,184.9L95.7,184.9z"/>
	<path class="st2" d="M95.7,167.8c40.5,0,73.6-33.1,73.6-73.6c0-40.6-33.1-73.7-73.6-73.7C55.1,20.5,22,53.6,22,94.2
		C22,134.7,55.1,167.8,95.7,167.8L95.7,167.8z"/>
	<path class="st3" d="M95.7,154.7c33.2,0,60.5-27.3,60.5-60.5c0-33.3-27.3-60.5-60.5-60.5c-33.3,0-60.5,27.2-60.5,60.5
		C35.2,127.4,62.4,154.7,95.7,154.7L95.7,154.7z"/>
	<path class="st4" d="M95.7,94.2V33.7c-33.4,0-60.5,27.1-60.5,60.5c0,33.3,27.1,60.5,60.5,60.5V94.2z"/>
	<path class="st2" d="M95.7,142.8c26.8,0,48.6-21.8,48.6-48.6s-21.8-48.7-48.6-48.7S47,67.4,47,94.2S68.9,142.8,95.7,142.8
		L95.7,142.8z"/>
	<polygon class="st5" points="95.7,60.9 103.9,86.4 130.6,86.3 109,102 117.2,127.3 95.7,111.6 74.1,127.3 82.4,102 60.7,86.3 
		87.5,86.4 	"/>
</g>
</svg>
