<?xml version="1.0" encoding="utf-8"?>
<!-- Generator: Adobe Illustrator 19.0.0, SVG Export Plug-In . SVG Version: 6.00 Build 0)  -->
<svg version="1.1" id="Layer_1" xmlns="http://www.w3.org/2000/svg" xmlns:xlink="http://www.w3.org/1999/xlink" x="0px" y="0px"
	 viewBox="0 0 99.4 180" style="enable-background:new 0 0 99.4 180;" xml:space="preserve">
<style type="text/css">
	.st0{fill:url(#XMLID_86_);}
	.st1{fill:url(#XMLID_87_);}
	.st2{fill:url(#XMLID_88_);stroke:#161616;stroke-width:0.5;stroke-miterlimit:10;}
	.st3{fill:url(#XMLID_89_);stroke:#161616;stroke-width:0.5;stroke-miterlimit:10;}
	.st4{fill:url(#XMLID_90_);stroke:#161616;stroke-width:0.5;stroke-miterlimit:10;}
</style>
<g id="XMLID_307_">
	<linearGradient id="XMLID_86_" gradientUnits="userSpaceOnUse" x1="49.7241" y1="34.3319" x2="49.7241" y2="153.8197">
		<stop  offset="0" style="stop-color:#A5A3A3"/>
		<stop  offset="0.5025" style="stop-color:#FFFFFF"/>
		<stop  offset="0.8916" style="stop-color:#838181"/>
	</linearGradient>
	<path id="XMLID_257_" class="st0" d="M98.8,98.3V73.9c0,0,0.1-0.1,0.2-0.1c0.2-0.1,0.4-0.3,0.4-0.5l0-4.6c0-0.3-0.2-0.5-0.5-0.5
		c-0.1,0-0.1,0-0.1,0V55.2c0-0.1,0-0.1,0.1-0.2V10c0-5.5-5.1-10-11.3-10H11.3C5.1,0,0,4.5,0,10v160.2c0,5.5,5.1,10,11.3,10h76.3
		c6.2,0,11.3-4.5,11.3-10l0-38.8l0.3-0.3c0.1-0.2,0.2-0.4,0.2-0.6V99.3c0-0.2-0.1-0.5-0.3-0.7C99,98.5,98.8,98.4,98.8,98.3z
		 M95.6,157.3c0,0.5-0.5,0.9-1,0.9H4.4c-0.6,0-1-0.4-1-0.9V15.1c0-0.5,0.5-0.9,1-0.9h90.2c0.6,0,1,0.4,1,0.9V157.3z"/>
	<linearGradient id="XMLID_87_" gradientUnits="userSpaceOnUse" x1="83.0164" y1="90.0051" x2="-63.5934" y2="90.0051">
		<stop  offset="0" style="stop-color:#151414"/>
		<stop  offset="1" style="stop-color:#615E5E"/>
	</linearGradient>
	<path id="XMLID_31_" class="st1" d="M87.5,0H11.9C5.7,0,0.6,4.5,0.6,10V170c0,5.5,5.1,10,11.3,10h75.6c6.2,0,11.3-4.5,11.3-10V10
		C98.9,4.5,93.8,0,87.5,0z M95.8,157.5c0,0.5-0.5,0.9-1,0.9H4.6c-0.6,0-1-0.4-1-0.9V15.6c0-0.5,0.5-0.9,1-0.9h90.2
		c0.6,0,1,0.4,1,0.9V157.5z"/>
	<linearGradient id="XMLID_88_" gradientUnits="userSpaceOnUse" x1="50.799" y1="9.2007" x2="50.799" y2="2.5196">
		<stop  offset="0.1872" style="stop-color:#000001"/>
		<stop  offset="0.7833" style="stop-color:#838181"/>
	</linearGradient>
	<path id="XMLID_273_" class="st2" d="M67.6,8.1H34c-0.7,0-1.2-0.6-1.2-1.2v0c0-0.7,0.6-1.2,1.2-1.2h33.7c0.7,0,1.2,0.6,1.2,1.2v0
		C68.9,7.6,68.3,8.1,67.6,8.1z"/>

		<linearGradient id="XMLID_89_" gradientUnits="userSpaceOnUse" x1="1715.8429" y1="171.8472" x2="1715.8429" y2="167.6434" gradientTransform="matrix(-1 0 0 1 1765.567 0)">
		<stop  offset="0.2292" style="stop-color:#000001"/>
		<stop  offset="0.3338" style="stop-color:#050506"/>
		<stop  offset="0.4562" style="stop-color:#131314"/>
		<stop  offset="0.5876" style="stop-color:#2B2A2B"/>
		<stop  offset="0.7252" style="stop-color:#4B4A4B"/>
		<stop  offset="0.8664" style="stop-color:#757374"/>
		<stop  offset="0.9077" style="stop-color:#838181"/>
	</linearGradient>
	<path id="XMLID_277_" class="st3" d="M66.6,168.6H32.9c-0.7,0-1.2,0.6-1.2,1.2l0,0c0,0.7,0.6,1.2,1.2,1.2h33.7
		c0.7,0,1.2-0.6,1.2-1.2l0,0C67.8,169.1,67.2,168.6,66.6,168.6z"/>

		<radialGradient id="XMLID_90_" cx="25.306" cy="7.1257" r="3.0701" gradientTransform="matrix(1.1246 0 0 1 -9.0606 0)" gradientUnits="userSpaceOnUse">
		<stop  offset="9.359606e-002" style="stop-color:#838181"/>
		<stop  offset="0.4133" style="stop-color:#000001"/>
	</radialGradient>
	<path id="XMLID_274_" class="st4" d="M18.4,8.1c-0.8-0.4-1.1-1.3-0.7-2s1.5-1,2.3-0.6s1.1,1.3,0.7,2C20.3,8.2,19.3,8.4,18.4,8.1z"
		/>
</g>
</svg>
