<?xml version="1.0" encoding="utf-8"?>
<!-- Generator: Adobe Illustrator 22.0.1, SVG Export Plug-In . SVG Version: 6.00 Build 0)  -->
<svg version="1.1" id="Layer_1" xmlns="http://www.w3.org/2000/svg" xmlns:xlink="http://www.w3.org/1999/xlink" x="0px" y="0px"
	 viewBox="0 0 68.8 81.3" style="enable-background:new 0 0 68.8 81.3;" xml:space="preserve">
<style type="text/css">
	.st0{fill:#FFD15D;}
	.st1{fill:#F6B64C;}
</style>
<g>
	<path class="st0" d="M52.5,4c9,0,16.3,7.3,16.3,16.3c0,9-7.3,16.3-16.3,16.3c-9,0-16.3-7.3-16.3-16.3C36.2,11.3,43.5,4,52.5,4
		L52.5,4z"/>
	<path class="st1" d="M52.5,8.1c6.8,0,12.3,5.5,12.3,12.3c0,6.8-5.5,12.3-12.3,12.3c-6.8,0-12.3-5.5-12.3-12.3
		C40.2,13.6,45.7,8.1,52.5,8.1L52.5,8.1z"/>
	<path class="st0" d="M53.2,24.8c0.4,0,0.7-0.4,1.1-0.7c0.4-0.4,0.4-0.7,0.4-1.1c0-0.4,0-0.7-0.4-1.1c-0.4-0.4-0.7-0.4-1.1-0.7V24.8
		L53.2,24.8z M51.8,14.8c-0.4,0-0.7,0.4-0.7,0.7c-0.4,0.4-0.4,0.7-0.4,1.1c0,0.4,0,0.7,0.4,0.7c0.4,0.4,0.4,0.4,0.7,0.7V14.8
		L51.8,14.8z M51.8,24.8v-4.1c-1.1-0.4-2.2-0.7-2.6-1.5c-0.7-0.7-0.7-1.5-0.7-2.6c0-1.1,0.4-1.9,1.1-2.6c0.7-0.7,1.5-1.1,2.6-1.1
		v-1.1h1.5v0.7c1.1,0,1.9,0.4,2.2,1.1c0.7,0.7,1.1,1.5,1.1,2.2l-2.2,0.4c0-0.7-0.4-1.1-1.1-1.5v3.7c1.5,0.4,2.6,1.1,3,1.5
		c0.4,0.7,0.7,1.5,0.7,2.6c0,1.1-0.4,2.2-1.1,3c-0.7,0.7-1.5,1.1-3,1.5v1.9h-1.5v-1.9c-1.1,0-1.9-0.4-2.6-1.1
		c-0.7-0.7-1.1-1.5-1.1-3l2.6-0.4c0,0.4,0.4,0.7,0.7,1.1C51,24.1,51.4,24.5,51.8,24.8L51.8,24.8z"/>
	<path class="st0" d="M25.8,31.1c12.7,0,23,10.3,23,23c0,12.7-10.3,23-23,23c-12.7,0-23-10.3-23-23C2.8,41.4,13.1,31.1,25.8,31.1
		L25.8,31.1z"/>
	<path class="st1" d="M25.8,36.7c9.6,0,17.4,7.8,17.4,17.4s-7.8,17.4-17.4,17.4c-9.6,0-17.4-7.8-17.4-17.4S16.1,36.7,25.8,36.7
		L25.8,36.7z"/>
	<path class="st0" d="M26.9,60.8c0.7,0,1.1-0.4,1.5-0.7c0.4-0.4,0.7-1.1,0.7-1.9c0-0.7,0-1.1-0.4-1.5c-0.4-0.4-0.7-0.7-1.9-1.1V60.8
		L26.9,60.8z M24.7,46.7c-0.4,0-1.1,0.4-1.1,0.7c-0.4,0.4-0.4,0.7-0.4,1.5c0,0.4,0,0.7,0.4,1.5c0.4,0.4,0.7,0.7,1.1,1.1V46.7
		L24.7,46.7z M24.7,60.5v-5.6c-1.9-0.4-3-1.1-3.7-2.2c-0.7-1.1-1.1-2.2-1.1-3.7c0-1.5,0.4-2.6,1.5-3.7c0.7-1.1,2.2-1.5,3.7-1.9v-1.1
		h1.9v1.5c1.5,0,2.6,0.7,3.3,1.5c0.7,0.7,1.5,1.9,1.5,3.3L28.4,49c-0.4-1.1-0.7-1.9-1.5-2.2v5.2c2.2,0.7,3.7,1.5,4.5,2.2
		c0.7,0.7,1.1,2.2,1.1,3.3c0,1.5-0.4,3-1.5,4.1c-1.1,1.1-2.2,1.9-4.1,1.9V66H25v-2.2c-1.5-0.4-2.6-0.7-3.7-1.9
		c-1.1-1.1-1.5-2.2-1.9-4.1l3.3-0.4c0,0.7,0.4,1.5,0.7,1.9C23.9,60.1,24.3,60.5,24.7,60.5L24.7,60.5z"/>
</g>
</svg>
