<svg xmlns="http://www.w3.org/2000/svg" xmlns:xlink="http://www.w3.org/1999/xlink" width="30" height="30" viewBox="0 0 30 30">
  <defs>
    <linearGradient id="linear-gradient" x1="1" y1="0.202" x2="0.801" y2="0.928" gradientUnits="objectBoundingBox">
      <stop offset="0" stop-color="#1aafd0"/>
      <stop offset="1" stop-color="#6a67ce"/>
    </linearGradient>
  </defs>
  <g id="ic_phone" transform="translate(0 -3)">
    <circle id="Ellipse_354" data-name="Ellipse 354" cx="15" cy="15" r="15" transform="translate(0 3)" fill="url(#linear-gradient)"/>
    <path id="ic_call_24px" d="M5.816,9.059a11.782,11.782,0,0,0,5.126,5.126l1.711-1.711a.773.773,0,0,1,.793-.187,8.872,8.872,0,0,0,2.777.443.78.78,0,0,1,.778.778v2.714a.78.78,0,0,1-.778.778A13.221,13.221,0,0,1,3,3.778.78.78,0,0,1,3.778,3H6.5a.78.78,0,0,1,.778.778,8.836,8.836,0,0,0,.443,2.777.781.781,0,0,1-.194.793Z" transform="translate(5 8)" fill="#fafafa"/>
  </g>
</svg>
