<?xml version="1.0" encoding="utf-8"?>
<!-- Generator: Adobe Illustrator 20.1.0, SVG Export Plug-In . SVG Version: 6.00 Build 0)  -->
<svg version="1.1" id="Layer_1" xmlns="http://www.w3.org/2000/svg" xmlns:xlink="http://www.w3.org/1999/xlink" x="0px" y="0px"
	 viewBox="0 0 224.2 229" style="enable-background:new 0 0 224.2 229;" xml:space="preserve">
<style type="text/css">
	.st0{fill-rule:evenodd;clip-rule:evenodd;fill:#4A87C4;}
	.st1{clip-path:url(#SVGID_2_);fill-rule:evenodd;clip-rule:evenodd;fill:#F7BB55;}
	.st2{clip-path:url(#SVGID_2_);fill-rule:evenodd;clip-rule:evenodd;fill:#606062;}
	.st3{clip-path:url(#SVGID_2_);fill-rule:evenodd;clip-rule:evenodd;fill:#FEFEFE;}
	.st4{clip-path:url(#SVGID_2_);fill-rule:evenodd;clip-rule:evenodd;fill:#4D87C3;}
	.st5{clip-path:url(#SVGID_2_);fill-rule:evenodd;clip-rule:evenodd;fill:#A9ABAE;}
	.st6{fill-rule:evenodd;clip-rule:evenodd;fill:#FEFEFE;}
	.st7{fill-rule:evenodd;clip-rule:evenodd;fill:#606062;}
	.st8{fill-rule:evenodd;clip-rule:evenodd;fill:#36BAAD;}
	.st9{fill-rule:evenodd;clip-rule:evenodd;fill:#3F3F41;}
	.st10{fill-rule:evenodd;clip-rule:evenodd;fill:#FFFFFF;}
	.st11{fill-rule:evenodd;clip-rule:evenodd;fill:#5F8481;}
</style>
<g>
	<path class="st0" d="M729.3-141.6c58.1,0,105.2,47.1,105.2,105.2S787.4,68.8,729.3,68.8C671.2,68.8,624,21.7,624-36.4
		S671.2-141.6,729.3-141.6"/>
	<g>
		<defs>
			<path id="SVGID_1_" d="M729.3-141.6c58.1,0,105.2,47.1,105.2,105.2S787.4,68.8,729.3,68.8C671.2,68.8,624,21.7,624-36.4
				S671.2-141.6,729.3-141.6"/>
		</defs>
		<clipPath id="SVGID_2_">
			<use xlink:href="#SVGID_1_"  style="overflow:visible;"/>
		</clipPath>
		<path class="st1" d="M740.7-14.8L740.7-14.8 M723.9-99.8l-14.6,0l-0.1,19l0.3,1.9l14.3-0.1L723.9-99.8z M723.9-72l-14.6,0l0,19
			l0.3,1.9l14.4-0.1L723.9-72z M732.9,10.7l-0.4,4.1l2.4-0.1c0.8-0.3,1.9-0.7,3.3-1.4c1.3,0.6,2.5,1.1,3.3,1.4l2.4,0.1l1.5,0.1
			l0.1,1.7l7.1,2.4l0.1-3.9l6.6-0.2L759,6l-6.6-0.1l0-20l0-0.7l14.6-0.1l0.1,8.9c1-1.9,5.4-5,7.2-7.5l0-94.2l-15.2,0l0-0.1l-28.7,0
			l-28.4,0l0,94.2c1.8,2.5,6.2,5.6,7.2,7.5l0.1-8.9l14.6,0.1L724,5.2C725,6.3,728.9,8.6,732.9,10.7z M735.6-14.8L735.6-14.8l2.6,0
			l2.6,0l4.7,0l0,1.4l-0.2,19c-0.3,0.1-0.5,0.3-0.9,0.4l-1.4,0c-1.2,0-3,0.2-4.8,0.3c-1.8-0.1-3.6-0.3-4.8-0.3l0,0.2
			c-1-0.1-1.8-0.3-2.4-0.7l-0.1-20.4L735.6-14.8z M744.6-99.8c0.5,0.5,0.7-0.1,0.8,0.7l-0.2,19.7c-0.3,0.2-0.4,0.3-0.6,0.4l-10.8,0
			c-2,0-1.7,0.4-2.9-0.5L730.8-95c-0.1-6,0-4,0.8-4.8l0,0L744.6-99.8L744.6-99.8z M757.2-99.8l9.8,0l0.1,19l-0.3,1.9L752.6-79
			l-0.2,0l0-18.8l0-2L757.2-99.8z M757.2-72l9.8,0l0,19l-0.3,1.9l-13.9-0.1l-0.5,0l0-19.1l0-1.7L757.2-72z M757.3-43.8l9.7,0l0,20.9
			l-8,0l0,0l-6.6-0.1l0-20.7v0L757.3-43.8z M745.2-43.8h-0.5h-13.1h-0.5V-23c1.9-0.5,4.8-0.5,7.1-0.2c2.3-0.3,5.2-0.4,7.1,0.2V-43.8
			z M730.9-51.6h14.3v0.1l0.1,0l0.2-19.5l0-0.9L734.6-72l-3.8,0.1L730.9-51.6z M723.9-43.8l-14.6,0l0,20.9l12.6,0l2-0.2L723.9-43.8z
			"/>
		<path class="st2" d="M646.7-33.4h162.1c2,0,3.6,1.6,3.6,3.6v96.4c0,2-1.6,3.6-3.6,3.6H646.7c-2,0-3.6-1.6-3.6-3.6v-96.4
			C643.1-31.8,644.8-33.4,646.7-33.4"/>
		<path class="st3" d="M653.4-16.2h149.7c1.6,0,2.9,1.3,2.9,2.9v74.4c0,1.6-1.3,2.9-2.9,2.9H653.4c-1.6,0-2.9-1.3-2.9-2.9v-74.4
			C650.5-14.9,651.8-16.2,653.4-16.2"/>
		<path class="st4" d="M679.3-1.1c6.5,0,11.8,5.3,11.8,11.8c0,6.5-5.3,11.8-11.8,11.8c-6.5,0-11.8-5.3-11.8-11.8
			C667.6,4.2,672.8-1.1,679.3-1.1"/>
		<path class="st4" d="M661.2,48.9h36.2V37.7c0-6.2-5-11.2-11.2-11.2h-13.8c-6.2,0-11.2,5-11.2,11.2V48.9z"/>
		<path class="st5" d="M714.9-4.8h77.5c1.6,0,3,1.3,3,3c0,1.6-1.3,3-3,3h-77.5c-1.6,0-3-1.3-3-3C712-3.4,713.3-4.8,714.9-4.8"/>
		<path class="st5" d="M714.9,11.2h38.8c1.6,0,3,1.3,3,3c0,1.6-1.3,3-3,3h-38.8c-1.6,0-3-1.3-3-3C712,12.5,713.3,11.2,714.9,11.2"/>
		<path class="st5" d="M714.9,27.1h77.5c1.6,0,3,1.3,3,3c0,1.6-1.3,3-3,3h-77.5c-1.6,0-3-1.3-3-3C712,28.5,713.3,27.1,714.9,27.1"/>
		<path class="st5" d="M714.9,43.1h65c1.6,0,3,1.3,3,3c0,1.6-1.3,3-3,3h-65c-1.6,0-3-1.3-3-3C712,44.4,713.3,43.1,714.9,43.1"/>
	</g>
	<rect x="709.9" y="-28.8" class="st6" width="38.7" height="8.5"/>
	<rect x="722.1" y="-41.9" class="st7" width="14.4" height="18.4"/>
	<path class="st6" d="M775.9-86.9l16.5,0l3.9,0c3.7-0.1,5.5-1.9,6.2-5.2l-0.2-2.6c-0.5-0.9-1-1.7-1.3-2.3c-1.1-0.8-2-1.5-4-1.7
		c-1.2-2.9-3.4-4.4-7.2-3.3l-1.4-1.4l-0.3-0.1l-0.2-0.2c-6.5-4.2-13.5-0.2-14.5,6.5c-0.3,0.3,0,0.1-0.6,0.3
		c-0.9,0.4-1.7,0.4-2.8,1.9c-0.8,1.2-1.2,2.6-0.8,4.2C769.9-86.9,773.3-86.8,775.9-86.9"/>
	<path class="st6" d="M650-60.9l28.5,0l6.7,0c6.4-0.2,9.5-3.3,10.7-9l-0.4-4.5c-0.8-1.5-1.7-2.9-2.3-4c-1.9-1.4-3.4-2.6-6.8-2.9
		c-2-4.9-5.9-7.5-12.5-5.7l-2.4-2.5l-0.5-0.2l-0.3-0.3c-11.3-7.2-23.3-0.4-25.1,11.3c-0.5,0.4,0,0.2-1,0.6c-1.6,0.7-3,0.6-4.9,3.3
		c-1.5,2-2.1,4.5-1.5,7.3C639.7-61,645.5-60.8,650-60.9"/>
</g>
<g>
	<path class="st8" d="M73,136c0.6,0.5,1.2,0.8,1.7,1.2c0.4,0.3,1.1,1,1.4,1.3c3.5,4,3.9,7.4,3.1,12.6c0.6,0.6,0.5,3.7,0.3,4.6
		c-0.2,1.6-0.6,2.9-1.2,4.2c-1.1,2.3-3.2,4.6-5.2,5.6c-0.5,6.1,1.5,10.8-3,14c-4.2,2.9-9.7-0.4-10.1-4.7c-0.7-1.3,0.1-7.3-0.3-9.3
		c-2.1-1.5-3.9-3-5.1-5.6c-1.1-2.4-1.6-5.1-1.2-7.9c0.1-0.5,0-0.9,0.4-0.7c-0.7-3.9-0.9-6.3,0.8-9.7c1-2,2.8-4,4.7-5.2l0.9-0.5
		c-0.5-0.3-0.2,0.2-0.3-0.6l0-59.9c0-2.6-0.4-7.7,0.5-9.7c2.6-5.8,10.3-4.8,12.2,0.2c0.8,2.1,0.5,7.1,0.5,9.7
		C73,95.6,73.2,116.1,73,136L73,136z M108.9,8.9h8.1c2.7,0.1,5.4,0.3,7.8,0.7c7.2,1,14.2,2.3,21,4.6c0.9,0.3,1.6,0.6,2.4,0.8
		c3.1,1,6,2.4,9,3.7c0.8,0.3,1.4,0.7,2.2,1.1c4.2,2.1,8.4,4.4,12.2,7.1c0.6,0.5,1.2,0.8,1.8,1.3c0.4,0.3,0.6,0.4,0.9,0.7
		c0.4,0.3,0.6,0.4,1,0.7l4.5,3.5c0.4,0.3,0.5,0.4,0.8,0.7l3.4,3c0.3,0.3,0.5,0.6,0.8,0.8c4.1,3.4,8.1,8.3,11.4,12.5l2.7,3.7l6.8,11
		c1.7,3.1,3.1,6.4,4.6,9.6c0.7,1.6,1.1,3.1,1.8,4.6c0.6,1.6,1.1,3.2,1.6,4.8c1.6,5.1,2.7,10.2,3.5,15.8c0.9,6.3,1,11.7,1,18
		c0,7.3-1.4,15.6-3.1,22.6c-1.3,5.2-2.9,9.7-4.8,14.5l-3,6.6c-0.4,0.8-0.7,1.4-1,2.1c-0.8,1.4-1.5,2.8-2.3,4.1
		c-0.8,1.3-1.6,2.7-2.4,4c-2.2,3.2-4.3,6.3-6.8,9.4L184,192.4c-1,1.1-2.3,2-3.4,3c-4.6,4.1-9.8,7.5-15.1,10.6
		c-5.2,3.1-8.8,4.5-14,6.8l-3.5,1.3c-6.7,2.5-13.5,4-20.6,5.1c-3.4,0.5-7.3,0.9-11.1,1h-8.1c-2.7-0.1-5.4-0.3-7.8-0.7
		c-8.1-1.1-15.9-2.7-23.4-5.4l-3.6-1.4c-0.2-0.1-0.3-0.1-0.5-0.2l-2.7-1.2c-3.6-1.6-7.3-3.4-10.6-5.4c-3.3-2-6.6-4.1-9.7-6.4
		l-5.3-4.2c-0.4-0.3-0.5-0.4-0.9-0.8c-0.4-0.3-0.5-0.4-0.9-0.7l-3.3-3c-2.6-2.3-4.7-5-7.1-7.5c-0.3-0.3-0.3-0.5-0.7-0.8
		c-3.9-4.2-9-12.2-11.8-17.1c-0.2-0.4-0.4-0.7-0.6-1.1c-0.9-1.6-1.9-3.5-2.6-5.2c-2.5-6-3.3-7.5-5.3-14c-0.5-1.6-0.9-3.2-1.4-5
		c-2.7-11-3.1-17.7-3.1-28.7c0-8.8,1.9-19.4,4.5-27.6c2.2-6.9,2.7-7.5,5.3-13.9c1.6-3.9,5.6-10.8,8.1-14.4l5.5-7.4
		c1.1-1.5,2.7-3,3.7-4.3l1.5-1.6c2.6-3.1,5.8-5.9,9-8.5c1.8-1.4,3.6-3,5.4-4.3s3.7-2.7,5.7-3.9c7.9-4.8,7.9-4.8,16.8-8.8
		C79.6,13.5,90,11,97.7,9.9C101.2,9.4,105,9,108.9,8.9L108.9,8.9z M165.2,116.3c0.4,0.4,1.1,0.8,1.6,1.2c4.3,3.7,5.7,8.2,4.3,14
		c0.9,0.2,0.4,4.7,0.3,5.6c-0.4,1.7-1,3.1-1.8,4.4c-2.9,4.6-4.1,2.5-4.1,5.3v15.7c0,1.9,0.3,11.3-0.2,12.3c-0.2,3.1-3.6,6.3-7.5,5.7
		c-2-0.3-3.4-1.4-4.2-2.5c-1.3-1.7-1.4-2.8-1.4-5.3c0-4.5,0-9,0-13.4c0-4.3,0.2-9.1,0-13.3c-1.7-0.5-4.5-3.6-5.5-5.6
		c-1.2-2.4-2.2-7.6-1-9c-1.1-5.1-0.1-9.3,3.3-12.8c0.5-0.5,1-0.9,1.5-1.3c0.8-0.6,1.3-0.7,1.7-1.2c-0.3-0.8-0.1-39.2-0.1-45.6
		c0-2.7,0-4.5,1.5-6.1c1-1.2,2.7-2.5,5.2-2.5c2.5,0,4.3,1.4,5.2,2.6c1.4,2,1.3,3.5,1.3,6.4l0,45.2
		C165.2,116.4,165.5,116,165.2,116.3L165.2,116.3z M119.1,79.8c0.4,0.5,1.2,0.9,1.6,1.2c0.5,0.3,1.2,1,1.5,1.4c3,3.3,4.6,8.3,3,12.7
		l0.5,2.3c0.3,4.9-2.3,9.7-6.5,12c-0.1,6.4,0.3,64.4-0.1,65.1c0,1.7-1.2,3.6-2,4.3c-4.6,4.1-11,0.4-11-4.3c-0.4-0.6,0-58.8-0.1-65.1
		c-4.2-2.3-6.8-7.3-6.5-12.2l0.2-1.7c0.1-0.3,0.1-0.2,0.3-0.4c-1.7-5,0.7-11.5,4.6-14.1c0.5-0.3,1.2-0.7,1.6-1.1
		c-0.3-0.4-0.2-10.9-0.1-12.2c0.3-3.2,3.1-5.9,6.5-5.9s6.3,2.7,6.6,5.9C119.3,68.9,119.3,79.4,119.1,79.8L119.1,79.8z"/>
	<path class="st9" d="M106.1,174.5c0,4.7,6.4,8.3,11,4.3c0.8-0.7,2-2.6,2-4.3c-0.2-5.8,0-12,0-17.9l0.1-51.5c0-0.4,0-0.8,0-1.2
		c0-1-0.1-0.9-0.3-0.9c-4.6,2.2-8.2,2.2-12.8,0c-0.3,0.2-0.3,0.3-0.3,1.1l0.1,52.6C106.1,162.5,106.2,168.6,106.1,174.5L106.1,174.5
		z"/>
	<path class="st9" d="M60.1,135.9c1.7-1,4.2-1.6,6.5-1.6c3,0.1,4.1,0.8,6.4,1.7c0.2-19.9,0-40.5,0-60.5c0-2.5,0.3-7.6-0.5-9.7
		c-1.9-5-9.6-6-12.2-0.2c-0.9,2-0.5,7.1-0.5,9.7l0,59.9C59.9,136.1,59.7,135.6,60.1,135.9L60.1,135.9z"/>
	<path class="st9" d="M152.3,115.9c0.6-0.1,1.5-0.7,3-1c4.2-1,6.6,0,9.9,1.4c0.3-0.3,0,0.1,0.2-0.3l0-45.2c0-2.9,0.1-4.4-1.3-6.4
		c-0.9-1.2-2.7-2.6-5.2-2.6c-2.5,0-4.2,1.3-5.2,2.5c-1.5,1.7-1.5,3.5-1.5,6.1C152.2,76.7,152,115.2,152.3,115.9L152.3,115.9z"/>
	<path class="st10" d="M106.1,79.8c-0.4,0.5-1.1,0.8-1.6,1.1c-3.9,2.6-6.3,9.1-4.6,14.1c0.9,3.7,3.7,6.4,6.3,7.9
		c4.6,2.2,8.2,2.2,12.8,0c2.6-1.5,5.4-4.3,6.3-7.9c1.5-4.4-0.1-9.4-3-12.7c-0.3-0.4-1-1-1.5-1.4c-0.5-0.3-1.2-0.7-1.6-1.2
		c-2.3-0.7-3-1.6-6.5-1.6C109.2,78.2,108.4,79,106.1,79.8L106.1,79.8z"/>
	<path class="st10" d="M152.3,115.9c-0.3,0.4-0.9,0.6-1.7,1.2c-0.5,0.4-1,0.9-1.5,1.3c-3.5,3.6-4.5,7.8-3.3,12.8
		c0.3,1,0.7,1.8,1.1,2.6c0.5,0.9,0.9,1.5,1.5,2.2c1,1.4,2.4,2.2,4.1,3.3c2.3,0.9,3.6,1.6,6.5,1.5c2-0.1,4.8-0.8,6.2-1.8
		c2.7-1.6,4.9-3.9,6-7.6c1.4-5.8-0.1-10.3-4.3-14c-0.5-0.4-1.2-0.8-1.6-1.2c-3.3-1.4-5.7-2.4-9.9-1.4
		C153.7,115.3,152.8,115.8,152.3,115.9L152.3,115.9z"/>
	<path class="st10" d="M60.1,135.9l-0.9,0.5c-1.9,1.2-3.7,3.2-4.7,5.2c-1.7,3.4-1.5,5.8-0.8,9.7c1.4,3.8,3.3,6.1,6.4,7.7
		c1.8,1,4.1,1.7,6.5,1.6c2.8-0.1,4.2-0.8,6.4-1.7c0.4-0.3,0.7-0.4,1.1-0.7c0.4-0.3,0.7-0.5,1-0.8c2.8-2.3,3-4.1,4.1-6.3
		c0.9-5.2,0.4-8.6-3.1-12.6c-0.3-0.4-1-1-1.4-1.3c-0.5-0.4-1.1-0.7-1.7-1.2c-2.3-0.9-3.3-1.6-6.4-1.7
		C64.3,134.3,61.8,134.9,60.1,135.9L60.1,135.9z"/>
	<path class="st9" d="M152.4,139.4c-0.4,0.5-0.2,5.9-0.2,6.5c0.2,4.2,0,9,0,13.3c0,4.5,0,9,0,13.4c0,2.5,0.1,3.6,1.4,5.3
		c0.8,1.1,2.2,2.2,4.2,2.5c3.9,0.6,7.3-2.6,7.5-5.7c0.3-8.1,0.1-18.4,0-26.9l0.1-7.8c0-1.1-0.2-0.9-0.4-1c-1.3,1-4.2,1.8-6.2,1.8
		C156,141,154.7,140.3,152.4,139.4L152.4,139.4z"/>
	<path class="st9" d="M60.1,159c-0.5,0.4-0.2-0.1-0.4,0.5v3.5c0,1.3,0.1,2.6,0.1,3.9c0,2.6,0,5.2,0.1,7.8c0.4,4.3,5.9,7.6,10.1,4.7
		c4.6-3.1,2.6-7.9,3-14l0-6.5c-2.2,1-3.5,1.7-6.4,1.7C64.2,160.7,61.9,160.1,60.1,159L60.1,159z"/>
	<path class="st9" d="M106.1,79.8c2.3-0.8,3.1-1.6,6.5-1.6c3.5,0,4.2,0.9,6.5,1.6c0.3-0.4,0.2-10.9,0.1-12.2
		c-0.3-3.2-3.1-5.9-6.6-5.9s-6.2,2.7-6.5,5.9C105.9,68.9,105.9,79.4,106.1,79.8L106.1,79.8z"/>
	<path class="st11" d="M119,102.9c0.1,0.1,0.3-0.1,0.3,0.9c0,0.4,0,0.8,0,1.2l-0.1,51.5c0,5.9-0.2,12,0,17.9
		c0.5-0.7,0-58.7,0.1-65.1c4.2-2.4,6.7-7.1,6.5-12l-0.5-2.3C124.4,98.7,121.6,101.4,119,102.9L119,102.9z"/>
	<path class="st11" d="M106.1,174.5c0.2-5.8,0-12,0-17.9l-0.1-52.6c0-0.8,0-0.9,0.3-1.1c-2.6-1.5-5.4-4.3-6.3-7.9
		c-0.2,0.2-0.1,0.1-0.3,0.4l-0.2,1.7c-0.3,4.8,2.3,9.9,6.5,12.2C106,115.7,105.7,173.9,106.1,174.5L106.1,174.5z"/>
	<path class="st11" d="M152.2,145.9c0-0.6-0.2-5.9,0.2-6.5c-1.7-1.1-3-1.8-4.1-3.3c-0.5-0.8-1-1.3-1.5-2.2c-0.4-0.8-0.8-1.7-1.1-2.6
		c-1.2,1.4-0.2,6.6,1,9C147.7,142.2,150.5,145.3,152.2,145.9L152.2,145.9z"/>
	<path class="st11" d="M165.1,139.1c0.2,0.1,0.4-0.1,0.4,1l-0.1,7.8c0,8.5,0.3,18.9,0,26.9c0.5-1,0.2-10.3,0.2-12.3v-15.7
		c0-2.8,1.1-0.7,4.1-5.3c0.8-1.3,1.4-2.7,1.8-4.4c0.2-0.9,0.6-5.4-0.3-5.6C170,135.1,167.8,137.5,165.1,139.1L165.1,139.1z"/>
	<path class="st11" d="M59.9,174.8c-0.1-2.6-0.1-5.2-0.1-7.8c0-1.3-0.1-2.6-0.1-3.9v-3.5c0.2-0.6-0.1-0.1,0.4-0.5
		c-3-1.6-5-3.9-6.4-7.7c-0.4-0.2-0.3,0.2-0.4,0.7c-0.4,2.7,0.1,5.4,1.2,7.9c1.2,2.6,3,4,5.1,5.6C60,167.5,59.2,173.4,59.9,174.8
		L59.9,174.8z"/>
	<path class="st11" d="M73,159l0,6.5c2.1-1,4.1-3.3,5.2-5.6c0.6-1.2,1-2.6,1.2-4.2c0.1-0.9,0.2-4.1-0.3-4.6
		c-1.1,2.3-1.3,4.1-4.1,6.3c-0.3,0.3-0.6,0.5-1,0.8C73.6,158.6,73.4,158.7,73,159L73,159z"/>
</g>
</svg>
