?xml version="1.0" encoding="utf-8"?>
<!-- Generator: Adobe Illustrator 19.0.0, SVG Export Plug-In . SVG Version: 6.00 Build 0)  -->
<svg version="1.1" id="Layer_1" xmlns="http://www.w3.org/2000/svg" xmlns:xlink="http://www.w3.org/1999/xlink" x="0px" y="0px"
	 viewBox="-223 310.3 165 172.7" style="enable-background:new -223 310.3 165 172.7;" xml:space="preserve">
<style type="text/css">
	.st0{fill:#FF8017;}
	.st1{enable-background:new    ;}
	.st2{fill:#FEFEFE;}
</style>
<path id="XMLID_7_" class="st0" d="M-222.6,397.3l79.9-86.8l84.7-0.2c-50.8,48.2-114.3,124.4-165,172.7L-222.6,397.3z"/>
<g class="st1">
	<path class="st2" d="M-205.1,399.8l6.3-6.4c1.4-1.4,2.6-2.4,3.6-3c1.3-0.7,2.7-1.1,4.2-1c1.5,0,3,0.4,4.4,1.1
		c1.5,0.7,3,1.9,4.7,3.5c1.4,1.4,2.5,2.8,3.2,4.2c0.8,1.7,1.2,3.3,1.2,4.9c0,1.2-0.4,2.5-1,3.8c-0.5,1-1.4,2.2-2.7,3.5l-6.5,6.6
		L-205.1,399.8z M-198.7,399.2l11.5,11.3l2.6-2.6c1-1,1.6-1.7,1.9-2.3c0.4-0.7,0.6-1.4,0.7-2.1s-0.2-1.6-0.8-2.6
		c-0.5-1-1.5-2.2-2.8-3.5c-1.3-1.3-2.5-2.2-3.4-2.7c-1-0.5-1.8-0.7-2.7-0.7c-0.8,0-1.6,0.3-2.4,0.8c-0.6,0.4-1.6,1.3-3,2.7
		L-198.7,399.2z"/>
	<path class="st2" d="M-184.8,385.4l-3.1-3l3.3-3.3l3.1,3L-184.8,385.4z M-170.6,399.4l-12.6-12.4l3.3-3.3l12.6,12.4L-170.6,399.4z"
		/>
	<path class="st2" d="M-160.8,389.5l-3.3,3.3l-12.6-12.4l3-3.1l1.8,1.8c-0.3-1.4-0.4-2.4-0.3-3.1c0.1-0.7,0.5-1.3,1-1.8
		c0.7-0.8,1.7-1.3,2.8-1.6l1.9,3.9c-0.9,0.2-1.6,0.5-2.1,1c-0.5,0.5-0.7,1-0.8,1.6c-0.1,0.6,0.2,1.3,0.6,2.1
		c0.5,0.8,1.8,2.3,3.9,4.4L-160.8,389.5z"/>
	<path class="st2" d="M-151.4,372.1l3.8-2.8c0.8,1.6,1.1,3.2,0.8,4.8c-0.3,1.5-1.1,3-2.4,4.4c-2.2,2.2-4.5,3.1-6.9,2.7
		c-2-0.3-3.8-1.3-5.6-3c-2.1-2.1-3.2-4.2-3.3-6.5c-0.1-2.3,0.7-4.2,2.3-5.9c1.8-1.9,3.9-2.7,6.2-2.6s4.7,1.5,7.2,4l-8.2,8.3
		c1,0.9,2,1.4,3.1,1.5c1.1,0,2-0.3,2.7-1.1c0.5-0.5,0.8-1.1,0.9-1.7C-150.8,373.6-151,372.9-151.4,372.1z M-154.6,368.6
		c-1-0.9-2-1.4-2.9-1.4c-1,0-1.8,0.3-2.5,1c-0.7,0.7-1,1.6-1,2.6c0.1,1,0.5,1.9,1.5,2.8L-154.6,368.6z"/>
	<path class="st2" d="M-139.4,350.1l-2.6,3.9c-0.8-0.5-1.5-0.8-2.2-0.7c-0.7,0.1-1.4,0.4-2,1c-0.8,0.8-1.2,1.8-1.1,2.8
		c0.1,1.1,0.8,2.2,2.1,3.6c1.5,1.5,2.8,2.3,3.9,2.4c1.1,0.1,2.1-0.3,2.9-1.1c0.6-0.6,1-1.3,1-2.1c0-0.8-0.3-1.6-1-2.7l3.8-2.7
		c1.2,1.8,1.7,3.6,1.5,5.3c-0.2,1.7-1.1,3.4-2.7,5c-1.8,1.8-3.8,2.7-6.1,2.7c-2.2-0.1-4.4-1.1-6.4-3.1c-2.1-2-3.1-4.2-3.2-6.4
		c-0.1-2.2,0.8-4.3,2.7-6.2c1.5-1.5,3-2.4,4.6-2.7S-141.1,349.2-139.4,350.1z"/>
	<path class="st2" d="M-134.9,338.2l2.7,2.6l-2.2,2.3l5.1,5c1,1,1.6,1.6,1.9,1.7c0.2,0.1,0.4,0.2,0.7,0.1c0.3,0,0.5-0.2,0.7-0.4
		c0.3-0.3,0.6-0.9,1-1.7l2.9,2.3c-0.4,1.1-1.1,2.1-2.1,3.1c-0.6,0.6-1.2,1-1.9,1.3c-0.7,0.3-1.3,0.4-1.8,0.3
		c-0.5-0.1-1.1-0.4-1.8-0.8c-0.5-0.3-1.3-1-2.4-2.2l-5.5-5.4l-1.5,1.5l-2.6-2.6l1.5-1.5l-2.5-2.5l1.3-5.3l4.4,4.4L-134.9,338.2z"/>
</g>
</svg>
