<?xml version="1.0" encoding="utf-8"?>
<svg xmlns="http://www.w3.org/2000/svg" xmlns:xlink="http://www.w3.org/1999/xlink" version="1.1" id="Layer_1" x="0px" y="0px" viewBox="0 0 168 167.7" style="enable-background:new 0 0 168 167.7;" xml:space="preserve">
<style type="text/css">
	.st0{fill:#FFC380;}
	.st1{fill:#FFCF99;}
	.st2{fill:#44A4EC;}
	.st3{fill:#73C3FF;}
</style>
<path class="st0" d="M113.3,84.6h-43c-2.2,0-4.2-1.5-4.8-3.7c-0.6-2.2,0.3-4.5,2.3-5.6c18.7-11.1,28.5-24,29.8-39.5  c0.4-5.4,5.2-9.7,10.7-9.6c5.6,0.1,10.8,2.3,14.6,6.3c3.9,4,6,9.2,6,14.8l0,0V49c0,13.6-4,22.2-11.4,33.5  C116.5,83.7,114.9,84.6,113.3,84.6z"/>
<path class="st1" d="M166,90.2c0-8.6-7-15.6-15.6-15.6H70.2c-0.9,0-1.8,0.2-2.5,0.7c-5.6,3.3-11.3,6.1-15.9,8.3  c-1.6,0.8-3.1,1.5-4.5,2.2c-1.7,0.8-2.8,2.6-2.8,4.5v63.6c0,1.9,1.1,3.6,2.8,4.5c20.1,10,36.8,11.3,56.3,11.3c3,0,6.1,0,9.3-0.1  c3.5,0,7.1-0.1,10.9-0.1h15.7c8.6,0,15.6-7,15.6-15.6c0-2.9-0.8-5.6-2.2-7.9c4.5-2.7,7.5-7.7,7.5-13.3c0-2.9-0.8-5.6-2.2-7.9  c4.5-2.7,7.5-7.7,7.5-13.3c0-4-1.5-7.7-4.1-10.5C164.5,98,166,94.2,166,90.2z"/>
<path class="st2" d="M49.5,74.6H7c-2.7,0-5,2.2-5,5v84.9c0,2.7,2.2,5,5,5h31.8c6.1-0.1,11.4-3.6,13.9-8.7c1.1-2.1,1.6-4.5,1.6-7  V79.5C54.5,76.8,52.3,74.6,49.5,74.6z"/>
<path class="st3" d="M33.3,143v26.5h-10V143c0-2.7,2.2-5,5-5C31,138,33.3,140.2,33.3,143z"/>
</svg>
