<?xml version="1.0" encoding="utf-8"?>
<!-- Generator: Adobe Illustrator 22.0.1, SVG Export Plug-In . SVG Version: 6.00 Build 0)  -->
<svg version="1.1" id="Layer_1" xmlns="http://www.w3.org/2000/svg" xmlns:xlink="http://www.w3.org/1999/xlink" x="0px" y="0px"
	 viewBox="0 0 150.1 150" style="enable-background:new 0 0 150.1 150;" xml:space="preserve">
<style type="text/css">
	.st0{fill:#C4C6C6;}
</style>
<g>
	<path class="st0" d="M74.7,141.4C37.9,141.4,8,111.5,8,74.7C8,37.8,37.9,8,74.7,8s66.7,29.9,66.7,66.7
		C141.4,111.4,111.7,141.4,74.7,141.4z M101.2,79.7c-6.6,7.1-16,11.7-26.4,11.7s-19.9-4.5-26.4-11.7C35.6,81.4,30,93.8,28,107.7
		c10.4,14.6,27.4,24.2,46.7,24.2s36.3-9.6,46.7-24.2C119.5,93.8,113.8,81.4,101.2,79.7z M74.7,27.1c-15.8,0-28.6,12.8-28.6,28.6
		s12.8,28.6,28.6,28.6s28.6-12.8,28.6-28.6S90.5,27.1,74.7,27.1z"/>
</g>
</svg>
