<svg xmlns="http://www.w3.org/2000/svg" xmlns:xlink="http://www.w3.org/1999/xlink" width="30" height="30" viewBox="0 0 30 30">
  <defs>
    <linearGradient id="linear-gradient" x1="0.309" y1="1.199" x2="0.9" y2="0.129" gradientUnits="objectBoundingBox">
      <stop offset="0" stop-color="#3be8b0"/>
      <stop offset="1" stop-color="#44b773"/>
    </linearGradient>
  </defs>
  <g id="ic_wallet" transform="translate(0 -1)">
    <circle id="Ellipse_356" data-name="Ellipse 356" cx="15" cy="15" r="15" transform="translate(0 1)" fill="url(#linear-gradient)"/>
    <path id="ic_account_balance_wallet_24px" d="M18.158,15.632v.842a1.689,1.689,0,0,1-1.684,1.684H4.684A1.684,1.684,0,0,1,3,16.474V4.684A1.684,1.684,0,0,1,4.684,3H16.474a1.689,1.689,0,0,1,1.684,1.684v.842H10.579A1.684,1.684,0,0,0,8.895,7.211v6.737a1.684,1.684,0,0,0,1.684,1.684Zm-7.579-1.684H19V7.211H10.579Zm3.368-2.105a1.263,1.263,0,1,1,1.263-1.263A1.261,1.261,0,0,1,13.947,11.842Z" transform="translate(4 5)" fill="#fff"/>
  </g>
</svg>
