<?xml version="1.0" encoding="utf-8"?>
<!-- Generator: Adobe Illustrator 20.1.0, SVG Export Plug-In . SVG Version: 6.00 Build 0)  -->
<svg version="1.1" id="Layer_1" xmlns="http://www.w3.org/2000/svg" xmlns:xlink="http://www.w3.org/1999/xlink" x="0px" y="0px"
	 viewBox="0 0 224.2 229" style="enable-background:new 0 0 224.2 229;" xml:space="preserve">
<style type="text/css">
	.st0{fill-rule:evenodd;clip-rule:evenodd;fill:#4A87C4;}
	.st1{clip-path:url(#SVGID_2_);fill-rule:evenodd;clip-rule:evenodd;fill:#F7BB55;}
	.st2{clip-path:url(#SVGID_2_);fill-rule:evenodd;clip-rule:evenodd;fill:#606062;}
	.st3{clip-path:url(#SVGID_2_);fill-rule:evenodd;clip-rule:evenodd;fill:#FEFEFE;}
	.st4{clip-path:url(#SVGID_2_);fill-rule:evenodd;clip-rule:evenodd;fill:#4D87C3;}
	.st5{clip-path:url(#SVGID_2_);fill-rule:evenodd;clip-rule:evenodd;fill:#A9ABAE;}
	.st6{fill-rule:evenodd;clip-rule:evenodd;fill:#FEFEFE;}
	.st7{fill-rule:evenodd;clip-rule:evenodd;fill:#606062;}
	.st8{fill-rule:evenodd;clip-rule:evenodd;fill:#81B7AA;}
	.st9{clip-path:url(#SVGID_4_);fill-rule:evenodd;clip-rule:evenodd;fill:#221F1F;}
	.st10{clip-path:url(#SVGID_4_);fill-rule:evenodd;clip-rule:evenodd;fill:#FEFEFE;}
	.st11{clip-path:url(#SVGID_4_);fill-rule:evenodd;clip-rule:evenodd;fill:#3F3F41;}
	.st12{clip-path:url(#SVGID_4_);fill-rule:evenodd;clip-rule:evenodd;fill:#BBBDBF;}
	.st13{clip-path:url(#SVGID_4_);fill-rule:evenodd;clip-rule:evenodd;fill:#E5E6E7;}
	.st14{clip-path:url(#SVGID_4_);fill-rule:evenodd;clip-rule:evenodd;fill:#D1D2D4;}
	.st15{fill-rule:evenodd;clip-rule:evenodd;fill:#221F1F;}
	.st16{fill-rule:evenodd;clip-rule:evenodd;fill:#3F3F41;}
	.st17{fill-rule:evenodd;clip-rule:evenodd;fill:#D1D2D4;}
</style>
<g>
	<path class="st0" d="M729.3-141.6c58.1,0,105.2,47.1,105.2,105.2S787.4,68.8,729.3,68.8C671.2,68.8,624,21.7,624-36.4
		S671.2-141.6,729.3-141.6"/>
	<g>
		<defs>
			<path id="SVGID_1_" d="M729.3-141.6c58.1,0,105.2,47.1,105.2,105.2S787.4,68.8,729.3,68.8C671.2,68.8,624,21.7,624-36.4
				S671.2-141.6,729.3-141.6"/>
		</defs>
		<clipPath id="SVGID_2_">
			<use xlink:href="#SVGID_1_"  style="overflow:visible;"/>
		</clipPath>
		<path class="st1" d="M740.7-14.8L740.7-14.8 M723.9-99.8l-14.6,0l-0.1,19l0.3,1.9l14.3-0.1L723.9-99.8z M723.9-72l-14.6,0l0,19
			l0.3,1.9l14.4-0.1L723.9-72z M732.9,10.7l-0.4,4.1l2.4-0.1c0.8-0.3,1.9-0.7,3.3-1.4c1.3,0.6,2.5,1.1,3.3,1.4l2.4,0.1l1.5,0.1
			l0.1,1.7l7.1,2.4l0.1-3.9l6.6-0.2L759,6l-6.6-0.1l0-20l0-0.7l14.6-0.1l0.1,8.9c1-1.9,5.4-5,7.2-7.5l0-94.2l-15.2,0l0-0.1l-28.7,0
			l-28.4,0l0,94.2c1.8,2.5,6.2,5.6,7.2,7.5l0.1-8.9l14.6,0.1L724,5.2C725,6.3,728.9,8.6,732.9,10.7z M735.6-14.8L735.6-14.8l2.6,0
			l2.6,0l4.7,0l0,1.4l-0.2,19c-0.3,0.1-0.5,0.3-0.9,0.4l-1.4,0c-1.2,0-3,0.2-4.8,0.3c-1.8-0.1-3.6-0.3-4.8-0.3l0,0.2
			c-1-0.1-1.8-0.3-2.4-0.7l-0.1-20.4L735.6-14.8z M744.6-99.8c0.5,0.5,0.7-0.1,0.8,0.7l-0.2,19.7c-0.3,0.2-0.4,0.3-0.6,0.4l-10.8,0
			c-2,0-1.7,0.4-2.9-0.5L730.8-95c-0.1-6,0-4,0.8-4.8l0,0L744.6-99.8L744.6-99.8z M757.2-99.8l9.8,0l0.1,19l-0.3,1.9L752.6-79
			l-0.2,0l0-18.8l0-2L757.2-99.8z M757.2-72l9.8,0l0,19l-0.3,1.9l-13.9-0.1l-0.5,0l0-19.1l0-1.7L757.2-72z M757.3-43.8l9.7,0l0,20.9
			l-8,0l0,0l-6.6-0.1l0-20.7v0L757.3-43.8z M745.2-43.8h-0.5h-13.1h-0.5V-23c1.9-0.5,4.8-0.5,7.1-0.2c2.3-0.3,5.2-0.4,7.1,0.2V-43.8
			z M730.9-51.6h14.3v0.1l0.1,0l0.2-19.5l0-0.9L734.6-72l-3.8,0.1L730.9-51.6z M723.9-43.8l-14.6,0l0,20.9l12.6,0l2-0.2L723.9-43.8z
			"/>
		<path class="st2" d="M646.7-33.4h162.1c2,0,3.6,1.6,3.6,3.6v96.4c0,2-1.6,3.6-3.6,3.6H646.7c-2,0-3.6-1.6-3.6-3.6v-96.4
			C643.1-31.8,644.8-33.4,646.7-33.4"/>
		<path class="st3" d="M653.4-16.2h149.7c1.6,0,2.9,1.3,2.9,2.9v74.4c0,1.6-1.3,2.9-2.9,2.9H653.4c-1.6,0-2.9-1.3-2.9-2.9v-74.4
			C650.5-14.9,651.8-16.2,653.4-16.2"/>
		<path class="st4" d="M679.3-1.1c6.5,0,11.8,5.3,11.8,11.8c0,6.5-5.3,11.8-11.8,11.8c-6.5,0-11.8-5.3-11.8-11.8
			C667.6,4.2,672.8-1.1,679.3-1.1"/>
		<path class="st4" d="M661.2,48.9h36.2V37.7c0-6.2-5-11.2-11.2-11.2h-13.8c-6.2,0-11.2,5-11.2,11.2V48.9z"/>
		<path class="st5" d="M714.9-4.8h77.5c1.6,0,3,1.3,3,3c0,1.6-1.3,3-3,3h-77.5c-1.6,0-3-1.3-3-3C712-3.4,713.3-4.8,714.9-4.8"/>
		<path class="st5" d="M714.9,11.2h38.8c1.6,0,3,1.3,3,3c0,1.6-1.3,3-3,3h-38.8c-1.6,0-3-1.3-3-3C712,12.5,713.3,11.2,714.9,11.2"/>
		<path class="st5" d="M714.9,27.1h77.5c1.6,0,3,1.3,3,3c0,1.6-1.3,3-3,3h-77.5c-1.6,0-3-1.3-3-3C712,28.5,713.3,27.1,714.9,27.1"/>
		<path class="st5" d="M714.9,43.1h65c1.6,0,3,1.3,3,3c0,1.6-1.3,3-3,3h-65c-1.6,0-3-1.3-3-3C712,44.4,713.3,43.1,714.9,43.1"/>
	</g>
	<rect x="709.9" y="-28.8" class="st6" width="38.7" height="8.5"/>
	<rect x="722.1" y="-41.9" class="st7" width="14.4" height="18.4"/>
	<path class="st6" d="M775.9-86.9l16.5,0l3.9,0c3.7-0.1,5.5-1.9,6.2-5.2l-0.2-2.6c-0.5-0.9-1-1.7-1.3-2.3c-1.1-0.8-2-1.5-4-1.7
		c-1.2-2.9-3.4-4.4-7.2-3.3l-1.4-1.4l-0.3-0.1l-0.2-0.2c-6.5-4.2-13.5-0.2-14.5,6.5c-0.3,0.3,0,0.1-0.6,0.3
		c-0.9,0.4-1.7,0.4-2.8,1.9c-0.8,1.2-1.2,2.6-0.8,4.2C769.9-86.9,773.3-86.8,775.9-86.9"/>
	<path class="st6" d="M650-60.9l28.5,0l6.7,0c6.4-0.2,9.5-3.3,10.7-9l-0.4-4.5c-0.8-1.5-1.7-2.9-2.3-4c-1.9-1.4-3.4-2.6-6.8-2.9
		c-2-4.9-5.9-7.5-12.5-5.7l-2.4-2.5l-0.5-0.2l-0.3-0.3c-11.3-7.2-23.3-0.4-25.1,11.3c-0.5,0.4,0,0.2-1,0.6c-1.6,0.7-3,0.6-4.9,3.3
		c-1.5,2-2.1,4.5-1.5,7.3C639.7-61,645.5-60.8,650-60.9"/>
</g>
<g>
	<path class="st8" d="M109.3,8c60.4,0,109.4,49,109.4,109.3c0,60.4-49,109.4-109.4,109.4C49,226.7,0,177.7,0,117.3
		C0,57,49,8,109.3,8L109.3,8z"/>
	<g>
		<defs>
			<path id="SVGID_3_" d="M109.3,8c60.4,0,109.4,49,109.4,109.3c0,60.4-49,109.4-109.4,109.4C49,226.7,0,177.7,0,117.3
				C0,57,49,8,109.3,8L109.3,8z"/>
		</defs>
		<clipPath id="SVGID_4_">
			<use xlink:href="#SVGID_3_"  style="overflow:visible;"/>
		</clipPath>
		<rect x="37.3" y="72.5" class="st9" width="144.1" height="176"/>
		<polygon class="st10" points="42.5,67.4 174.8,67.4 174.8,243.4 60.9,243.4 42.5,225.2 		"/>
		<path class="st11" d="M74.8,62.1h22.7c-0.1-0.7-0.2-1.3-0.2-2c0-6.2,5-11.3,11.3-11.3c6.2,0,11.2,5,11.2,11.3c0,0.7-0.1,1.4-0.2,2
			h22.7v10.1H74.8V62.1z M114.5,62.1L114.5,62.1L114.5,62.1l0.1-0.1v0l0,0v-0.1l0,0l0,0v-0.1v0l0,0v-0.1l0-0.1l0-0.1v0v0l0,0v0v0
			v-0.1l0-0.1l0,0v0l0-0.1v0c0-0.1,0-0.1,0-0.1l0,0l0-0.1v0l0,0l0,0v-0.1l0,0v0c0,0,0-0.1,0-0.1l0,0c0-0.1,0-0.1,0-0.1l0,0l0,0v0
			c0-0.1,0-0.1,0-0.1c0-3.4-2.8-6.2-6.2-6.2s-6.2,2.8-6.2,6.2c0,0.1,0,0.1,0,0.1v0l0,0l0,0c0,0,0,0.1,0,0.1l0,0c0,0.1,0,0.1,0,0.1v0
			l0,0l0,0.1l0,0l0,0v0c0,0,0,0.1,0,0.1l0,0c0,0.1,0,0.1,0,0.1v0l0,0.1v0l0,0l0,0.1v0.1v0l0,0v0v0v0l0,0.1l0,0.1l0,0.1v0v0l0,0.1v0
			l0,0l0,0.1v0v0l0,0v0.1l0,0c0.9,2.4,3.1,4.2,5.9,4.2C111.3,66.3,113.7,64.6,114.5,62.1L114.5,62.1z"/>
		<polygon class="st12" points="42.4,225.3 61.3,225.3 61.3,243.8 		"/>
		<polygon class="st13" points="61.3,225.3 85.3,243.4 61.3,243.8 		"/>
		<path class="st14" d="M59.3,90.3h96.1c1.8,0,3.3,1.5,3.3,3.3l0,0c0,1.8-1.5,3.3-3.3,3.3H59.3c-1.8,0-3.3-1.5-3.3-3.3l0,0
			C56,91.8,57.5,90.3,59.3,90.3L59.3,90.3z"/>
		<path class="st14" d="M59.3,108.5h96.1c1.8,0,3.3,1.5,3.3,3.3l0,0c0,1.8-1.5,3.3-3.3,3.3H59.3c-1.8,0-3.3-1.5-3.3-3.3l0,0
			C56,109.9,57.5,108.5,59.3,108.5L59.3,108.5z"/>
		<path class="st14" d="M59.3,126.6h96.1c1.8,0,3.3,1.5,3.3,3.3l0,0c0,1.8-1.5,3.3-3.3,3.3H59.3c-1.8,0-3.3-1.5-3.3-3.3l0,0
			C56,128.1,57.5,126.6,59.3,126.6L59.3,126.6z"/>
		<path class="st14" d="M59.3,144.8h96.1c1.8,0,3.3,1.5,3.3,3.3l0,0c0,1.8-1.5,3.3-3.3,3.3H59.3c-1.8,0-3.3-1.5-3.3-3.3l0,0
			C56,146.2,57.5,144.8,59.3,144.8L59.3,144.8z"/>
		<path class="st14" d="M59.3,162.9h96.1c1.8,0,3.3,1.5,3.3,3.3l0,0c0,1.8-1.5,3.3-3.3,3.3H59.3c-1.8,0-3.3-1.5-3.3-3.3l0,0
			C56,164.4,57.5,162.9,59.3,162.9L59.3,162.9z"/>
		<path class="st14" d="M59.3,181.1h50.6c1.8,0,3.3,1.5,3.3,3.3l0,0c0,1.8-1.5,3.3-3.3,3.3H59.3c-1.8,0-3.3-1.5-3.3-3.3l0,0
			C56,182.6,57.5,181.1,59.3,181.1L59.3,181.1z"/>
		<rect x="124.9" y="198.3" class="st12" width="33.7" height="15.5"/>
		<path class="st14" d="M126.5,219.9H157c0.9,0,1.6,0.7,1.6,1.6l0,0c0,0.9-0.7,1.6-1.6,1.6h-30.5c-0.9,0-1.6-0.8-1.6-1.6l0,0
			C124.9,220.6,125.6,219.9,126.5,219.9L126.5,219.9z"/>
		<path class="st14" d="M126.5,226.7H157c0.9,0,1.6,0.7,1.6,1.6l0,0c0,0.9-0.7,1.6-1.6,1.6h-30.5c-0.9,0-1.6-0.7-1.6-1.6l0,0
			C124.9,227.4,125.6,226.7,126.5,226.7L126.5,226.7z"/>
	</g>
	<rect x="37.2" y="54.1" class="st15" width="144.4" height="35.2"/>
	<polygon class="st6" points="42.3,48.9 175,48.9 175,89.3 167.9,98.4 163.5,89.8 53.8,89.3 48.2,104.3 42.3,89.3 	"/>
	<path class="st16" d="M74.7,43.6h22.8c-0.1-0.7-0.2-1.4-0.2-2c0-6.2,5-11.3,11.3-11.3c6.2,0,11.3,5,11.3,11.3c0,0.7-0.1,1.4-0.2,2
		h22.8v10.1H74.7V43.6z M114.5,43.6L114.5,43.6L114.5,43.6l0-0.1l0,0v0l0-0.1l0,0v0v0l0,0v-0.1l0-0.1v-0.1l0-0.1l0-0.1l0,0v0v0v0
		l0-0.1l0-0.1v0l0,0l0-0.1v-0.1c0,0,0-0.1,0-0.1v0l0-0.1l0,0l0,0l0,0V42l0,0l0,0c0-0.1,0-0.1,0-0.1v0c0,0,0-0.1,0-0.1v0l0,0l0,0
		c0-0.1,0-0.1,0-0.1c0-3.5-2.8-6.2-6.2-6.2c-3.5,0-6.2,2.8-6.2,6.2c0,0,0,0.1,0,0.1l0,0l0,0v0c0,0,0,0.1,0,0.1v0c0,0.1,0,0.1,0,0.1
		l0,0v0v0.1l0,0l0,0l0,0c0,0.1,0,0.1,0,0.1v0c0,0,0,0.1,0,0.1l0,0.1v0.1l0,0l0,0v0.1l0,0.1v0v0v0l0,0l0,0.1l0,0.1v0.1l0,0.1v0.1l0,0
		v0v0l0,0l0,0.1v0l0,0v0l0,0.1v0c0.9,2.4,3.2,4.2,5.9,4.2C111.3,47.8,113.7,46,114.5,43.6L114.5,43.6z"/>
	<path class="st17" d="M59.2,71.8h96.3c1.8,0,3.3,1.5,3.3,3.3l0,0c0,1.8-1.5,3.3-3.3,3.3H59.2c-1.8,0-3.3-1.5-3.3-3.3l0,0
		C55.9,73.3,57.3,71.8,59.2,71.8L59.2,71.8z"/>
</g>
</svg>
