<?xml version="1.0" encoding="utf-8"?>
<!-- Generator: Adobe Illustrator 22.0.1, SVG Export Plug-In . SVG Version: 6.00 Build 0)  -->
<svg version="1.1" id="Layer_1" xmlns="http://www.w3.org/2000/svg" xmlns:xlink="http://www.w3.org/1999/xlink" x="0px" y="0px"
	 viewBox="0 0 130 130.9" style="enable-background:new 0 0 130 130.9;" xml:space="preserve">
<style type="text/css">
	.st0{fill:#F99E82;}
	.st1{fill:#DB7C65;}
	.st2{fill:#FFFFFF;}
	.st3{fill:#E6E9ED;}
	.st4{fill:#2B3B4E;}
	.st5{fill:#334A5E;}
	.st6{fill:#64BC62;}
</style>
<g>
	<path class="st0" d="M65.8,1.8c35.3,0,63.8,28.6,63.8,63.8s-28.6,63.8-63.8,63.8S2,100.8,2,65.6S30.5,1.8,65.8,1.8L65.8,1.8z"/>
	<path class="st1" d="M99.1,23.3l-53.8,25l-16.8,61l6.3,12.1c9.2,5.1,19.7,8,31,8c34.1,0,61.9-26.7,63.7-60.3L99.1,23.3z"/>
	<g>
		<polygon class="st2" points="50.2,23.3 99.1,23.3 99.1,109.3 28.6,109.3 28.6,45 50.2,23.3 		"/>
		<polygon class="st3" points="50.2,45 28.6,45 50.2,23.3 50.2,45 		"/>
		<polygon class="st3" points="38.3,52.8 87.6,52.8 87.6,55.5 38.3,55.5 38.3,52.8 		"/>
		<polygon class="st3" points="38.3,65 87.6,65 87.6,67.7 38.3,67.7 38.3,65 		"/>
		<polygon class="st3" points="38.3,77.2 87.6,77.2 87.6,79.9 38.3,79.9 38.3,77.2 		"/>
		<polygon class="st3" points="38.3,89.4 87.6,89.4 87.6,92.1 38.3,92.1 38.3,89.4 		"/>
		<polygon class="st4" points="79.9,88.5 85.6,82.8 102.3,99.5 96.6,105.1 79.9,88.5 		"/>
		<path class="st5" d="M80.8,83.8c-8.4,8.4-22,8.4-30.2,0c-8.2-8.4-8.4-22,0-30.2c8.4-8.4,22-8.4,30.2,0
			C89.2,61.8,89.2,75.4,80.8,83.8L80.8,83.8z M45.3,48.3c-11.2,11.2-11.2,29.4,0,40.7c11.2,11.2,29.4,11.2,40.7,0
			c11.2-11.2,11.2-29.4,0-40.7C74.9,36.9,56.7,36.9,45.3,48.3L45.3,48.3z"/>
		<path class="st6" d="M103.2,117.3c4.9-3.5,8.8-7.4,11.7-10.9L98.4,90.1c-0.7-0.7-1.9-0.7-2.6,0l-8.7,8.7c-0.7,0.7-0.7,1.9,0,2.6
			L103.2,117.3z"/>
	</g>
</g>
</svg>
