<?xml version="1.0" encoding="utf-8"?>
<!-- Generator: Adobe Illustrator 22.0.1, SVG Export Plug-In . SVG Version: 6.00 Build 0)  -->
<svg version="1.1" id="Layer_1" xmlns="http://www.w3.org/2000/svg" xmlns:xlink="http://www.w3.org/1999/xlink" x="0px" y="0px"
	 viewBox="0 0 130 130.9" style="enable-background:new 0 0 130 130.9;" xml:space="preserve">
<style type="text/css">
	.st0{fill:#5BC4BC;}
	.st1{fill:#FCC39A;}
	.st2{fill:#FDD6BF;}
	.st3{fill:#5E6A7A;}
</style>
<g>
	<path class="st0" d="M65.3,3.3c34.8,0,63,28.2,63,63s-28.2,63-63,63s-63-28.2-63-63S30.5,3.3,65.3,3.3L65.3,3.3z"/>
	<polygon class="st1" points="36.1,78.9 69.9,38.8 115,38.8 115,79.5 91.5,79.5 64.8,104.5 36.1,78.9 	"/>
	<path class="st2" d="M96.4,70.1L65.3,38.8H15.6v40.6h21.5l24.2,24.2c2.2,2.2,5.7,2.2,7.8,0c2.2-2.2,2.2-5.7,0-7.8L50.6,77.4l1-1
		l20,20c2.2,2.2,5.7,2.2,7.8,0c2.2-2.2,2.2-5.7,0-7.8L59.6,68.7l1-1L82,89c2.2,2.2,5.7,2.2,7.8,0c2.2-2.2,2.2-5.7,0-7.8L68.7,60l1-1
		l18.8,18.8c2.2,2.2,5.7,2.2,7.8,0C98.6,75.7,98.6,72.2,96.4,70.1L96.4,70.1z"/>
	<path class="st3" d="M2.2,66.4c0,7.8,1.4,15.3,4,22.2h16.1V38.8H8.6C4.5,47.1,2.2,56.5,2.2,66.4L2.2,66.4z"/>
	<path class="st1" d="M55.1,53.6l14.8-14.8l7.8,7.8L63,61.4c-2.2,2.2-5.7,2.2-7.8,0C52.9,59.3,52.9,55.8,55.1,53.6L55.1,53.6z"/>
	<path class="st3" d="M108.2,88.5h16.1c2.6-6.9,4-14.4,4-22.2c0-9.9-2.3-19.2-6.3-27.5h-13.8V88.5L108.2,88.5z"/>
	<path class="st1" d="M61.4,95.1c2.9,0,5.3,2.4,5.3,5.3c0,2.9-2.4,5.3-5.3,5.3c-2.9,0-5.3-2.4-5.3-5.3
		C56.1,97.5,58.5,95.1,61.4,95.1L61.4,95.1z"/>
	<path class="st1" d="M52.8,89.2c2.9,0,5.3,2.4,5.3,5.3c0,2.9-2.4,5.3-5.3,5.3c-2.9,0-5.3-2.4-5.3-5.3
		C47.5,91.6,49.8,89.2,52.8,89.2L52.8,89.2z"/>
	<path class="st1" d="M45.3,81.9c2.9,0,5.3,2.4,5.3,5.3c0,2.9-2.4,5.3-5.3,5.3c-2.9,0-5.3-2.4-5.3-5.3C40,84.3,42.4,81.9,45.3,81.9
		L45.3,81.9z"/>
	<path class="st1" d="M37.4,74.9c2.9,0,5.3,2.4,5.3,5.3c0,2.9-2.4,5.3-5.3,5.3c-2.9,0-5.3-2.4-5.3-5.3
		C32.1,77.3,34.5,74.9,37.4,74.9L37.4,74.9z"/>
</g>
</svg>
