<?xml version="1.0" encoding="utf-8"?>
<!-- Generator: Adobe Illustrator 19.0.0, SVG Export Plug-In . SVG Version: 6.00 Build 0)  -->
<svg version="1.1" id="Layer_1" xmlns="http://www.w3.org/2000/svg" xmlns:xlink="http://www.w3.org/1999/xlink" x="0px" y="0px"
	 viewBox="0 0 150 150" style="enable-background:new 0 0 150 150;" xml:space="preserve">
<style type="text/css">
	.st0{fill:none;}
	.st1{fill:#FAA618;}
	.st2{fill:#FBCE17;}
	.st3{fill:#FEFEFE;}
</style>
<rect id="XMLID_42_" x="0.4" y="0" class="st0" width="150" height="150"/>
<g id="XMLID_67_">
	<path id="XMLID_45_" class="st1" d="M46.6,13.3h83.7c3.5,0,6.2,3.5,6.2,6.8v109.9c0,4.1-2.7,6.8-6.2,6.8H22c-4.1,0-6.8-2.7-6.8-6.8
		V46.2L46.6,13.3z"/>
	<path id="XMLID_44_" class="st2" d="M39,46.1H14.4l32.1-32.9v25.3C46.6,42.7,43.2,46.1,39,46.1L39,46.1z"/>
	<path id="XMLID_43_" class="st3" d="M85.9,107.7c0,5.5-4.4,9.9-9.9,9.9c-5.5,0-9.9-4.4-9.9-9.9c0-5.5,4.4-9.9,9.9-9.9
		S85.9,102.2,85.9,107.7L85.9,107.7z"/>
	<path id="XMLID_41_" class="st3" d="M83.3,92.9H68.5c0-14.9,8-19.8,13.5-22.9c1.9-0.8,3.3-1.9,4.4-3.1c2.5-2.5,1.4-5.8,0.8-6.9
		c-1.4-3.3-5-6.9-11.3-6.9c-10.4,0-12.4,9.4-12.4,11.3l-14.9-2c1.1-8.3,8.5-24.2,27.3-24.2c11.3,0,21.2,6.3,25.3,15.9
		c3.3,8.3,1.9,17.4-4.1,23.1c-2.5,2.5-5.5,3.9-8,5.5C84.8,85.4,83.3,87.9,83.3,92.9L83.3,92.9z"/>
</g>
</svg>
