<?xml version="1.0" encoding="utf-8"?>
<!-- Generator: Adobe Illustrator 19.0.0, SVG Export Plug-In . SVG Version: 6.00 Build 0)  -->
<svg version="1.1" id="Layer_1" xmlns="http://www.w3.org/2000/svg" xmlns:xlink="http://www.w3.org/1999/xlink" x="0px" y="0px"
	 viewBox="0 0 150 150" style="enable-background:new 0 0 150 150;" xml:space="preserve">
<style type="text/css">
	.st0{fill-rule:evenodd;clip-rule:evenodd;fill:#0F347B;}
	.st1{fill-rule:evenodd;clip-rule:evenodd;fill:#15408E;}
	.st2{fill-rule:evenodd;clip-rule:evenodd;fill:#FEFEFE;}
</style>
<g id="XMLID_5_">
	<path id="XMLID_3_" class="st0" d="M132.2,67.8c-0.2-1.5-2.1-2.8-3.6-2.8c-5.5,0-10.2-3.2-12.3-8c-1.9-5.1-0.6-10.8,3.4-14.6
		c1.1-1.1,1.3-3,0.4-4.4c-2.8-3.6-5.9-6.6-9.3-9.5c-1.3-0.9-3.4-0.9-4.5,0.4c-3.4,4-9.9,5.3-14.6,3.2c-5.1-2.1-8.3-7.2-8-12.7
		c0.2-1.7-1.1-3.2-2.8-3.4c-2.3-0.2-4.4-0.4-6.6-0.4h-0.4c-2.1,0-4.2,0.2-6.3,0.4c-1.7,0.2-3,1.7-2.8,3.4c0.2,5.3-3,10.4-8.1,12.5
		c-4.7,1.9-11,0.6-14.4-3.4c-1.1-1.1-3.2-1.3-4.5-0.4c-3.4,2.8-6.6,6.1-9.5,9.5c-0.9,1.3-0.9,3.2,0.4,4.4c4.2,3.8,5.5,9.7,3.2,14.8
		c-1.9,4.7-7,8-12.7,8c-1.9-0.2-3.2,1.1-3.4,2.8c-0.2,2.1-0.4,4.4-0.4,6.4v0.4c0,2.3,0.2,4.4,0.4,6.4c0.2,1.7,2.1,2.8,3.8,2.8
		c5.1,0,10,3,12.1,8.1c2.1,4.9,0.8,10.8-3.2,14.4c-1.3,1.1-1.5,3.2-0.4,4.5c2.7,3.4,5.9,6.6,9.3,9.3c1.3,1.1,3.2,0.9,4.4-0.4
		c3.6-3.8,9.9-5.3,14.8-3.2c4.9,2.1,8.1,7.2,8,12.7c-0.2,1.7,1.1,3.2,2.8,3.4c2.3,0.4,4.4,0.4,6.6,0.4s4.4,0,6.4-0.2
		c1.7-0.2,3-1.7,3-3.4c-0.2-5.5,3-10.4,8-12.5c4.9-2.1,11-0.6,14.6,3.2c1.1,1.3,3,1.5,4.4,0.4c3.6-2.7,6.6-5.9,9.5-9.3
		c1.1-1.3,0.9-3.4-0.4-4.5c-4-3.6-5.3-9.5-3.2-14.6c2.1-4.7,6.8-8,11.9-8h0.8c1.7,0.2,3.2-1.1,3.4-2.8
		C132.8,76.9,132.8,72.3,132.2,67.8L132.2,67.8z"/>
	<path id="XMLID_2_" class="st1" d="M73.9,15.7c-2.1,0-4.2,0.2-6.3,0.4c-1.7,0.2-3,1.7-2.8,3.4c0.2,5.3-3,10.4-8.1,12.5
		c-4.7,1.9-11,0.6-14.4-3.4c-1.1-1.1-3.2-1.3-4.5-0.4c-3.4,2.8-6.6,6.1-9.5,9.5c-0.9,1.3-0.9,3.2,0.4,4.4c4.2,3.8,5.5,9.7,3.2,14.8
		c-1.9,4.7-7,8-12.7,8c-1.9-0.2-3.2,1.1-3.4,2.8c-0.2,2.1-0.4,4.4-0.4,6.4v0.4c0,2.3,0.2,4.4,0.4,6.4c0.2,1.7,2.1,2.8,3.8,2.8
		c5.1,0,10,3,12.1,8.1c2.1,4.9,0.8,10.8-3.2,14.4c-1.3,1.1-1.5,3.2-0.4,4.5c2.7,3.4,5.9,6.6,9.3,9.3c1.3,1.1,3.2,0.9,4.4-0.4
		c3.6-3.8,9.9-5.3,14.8-3.2c4.9,2.1,8.1,7.2,8,12.7c-0.2,1.7,1.1,3.2,2.8,3.4c2.1,0.4,4.4,0.4,6.6,0.4
		C73.9,84.1,73.9,64.7,73.9,15.7L73.9,15.7z"/>
	<path id="XMLID_1_" class="st2" d="M61.2,46.9L61.2,46.9c1.9,0,3.4,1.5,3.4,3.4v18.8c5.5-3.8,14.2-3.8,19.3,0.6V50.3
		c0-1.9,1.5-3.4,3.4-3.4l0,0c1.9,0,3.4,1.5,3.4,3.4v48.1c0,1.7-1.5,3.2-3.4,3.2l0,0c-1.9,0-3.4-1.5-3.4-3.2V82
		C83.3,70,65.5,69.5,64.6,80.8v17.6c0,1.7-1.5,3.2-3.4,3.2l0,0c-1.9,0-3.4-1.5-3.4-3.2V50.3C57.8,48.4,59.3,46.9,61.2,46.9
		L61.2,46.9z"/>
</g>
</svg>
