<?xml version="1.0" encoding="utf-8"?>
<!-- Generator: Adobe Illustrator 20.1.0, SVG Export Plug-In . SVG Version: 6.00 Build 0)  -->
<svg version="1.1" id="Layer_1" xmlns="http://www.w3.org/2000/svg" xmlns:xlink="http://www.w3.org/1999/xlink" x="0px" y="0px"
	 viewBox="0 0 165.2 188.2" style="enable-background:new 0 0 165.2 188.2;" xml:space="preserve">
<style type="text/css">
	.st0{fill:#C9CCD4;}
	.st1{fill:#96989A;}
	.st2{fill:#FDBC2D;}
	.st3{fill:#FAAA31;}
	.st4{fill:#725F35;}
</style>
<g id="Layer_x0020_1">
	<g id="_135439448">
		<path class="st0" d="M105.6,103.3l0.9,0.1l29.3,2.1c0.1-15.9,1.8-55.9-2.7-68.1C118.7-1.7,66.5-7,43.6,23.9
			C30.1,42.1,33.3,55.2,33.3,85h30.2c0-8.4-1.3-32.6,1.7-38.5c8.1-15.3,28.9-16.5,37.9-1.2c3.5,5.8,2.4,9.3,2.4,17.7
			C105.6,76.4,105.6,89.9,105.6,103.3z"/>
		<path class="st0" d="M8.1,181.2c2.7-2.9,29.4-17.5,34.8-20.6c6.1-3.5,32.2-19.5,36.4-20.1c-2.4-3.7-8-4-9.3-12.5
			c-1.1-7,2.2-12.3,6-14.8c11.6-7.6,23.6,0.9,23,14.6c3.1-1.1,4.1-2.3,7.4-3.7v63.5c6.2,0,9.9-0.5,14.7-0.9c5-0.4,10.3-1,14.6-1
			l-0.2-78.7L165,90.4c0-5.5,1.2-5.2-3.3-6.5c-2.1-0.6-5.4-1.2-8.4-1.8c-3.2-0.6-14.2-2.6-17.6-2.1L106.4,78l-0.9-0.1
			c-13-0.4-41.9-1.4-53.7,0.2C40.8,79.6,13.3,80.7,4,85.2v86.9C4,178.6,2.4,180.8,8.1,181.2z"/>
		<path class="st0" d="M99.1,127.9c-1.9,8.9-4.6,7.5-9.4,12l5.9,22.2l-22.1-0.1l5.9-21.4c-4.2,0.6-30.3,16.6-36.4,20.1
			c-5.4,3.1-32.2,17.7-34.8,20.6c5,3.1,36.1,5.5,45.4,6.3c15.4,1.3,64.5,0.7,89.9-2.5l-2.9-80.8C137.2,105.7,102.2,126.8,99.1,127.9
			z"/>
		<path class="st0" d="M135.6,107.1l0.2,78.7c6-0.1,25.3-3.5,29.2-5.5V90.4L135.6,107.1z"/>
		<path class="st0" d="M79.3,140.5l-5.9,21.4l22.1,0.1l-5.9-22.2c4.8-4.5,7.5-3,9.4-12c0.6-13.8-11.4-22.2-23-14.6
			c-3.8,2.4-7.1,7.8-6,14.8C71.4,136.6,77,136.8,79.3,140.5z"/>
		<g>
			<path class="st1" d="M101.8,99.4l0.9,0.1l29.3,2.1c0.1-15.9,1.8-55.9-2.7-68.1C114.8-5.7,62.7-10.9,39.9,19.9
				C26.4,38.2,29.6,51.3,29.6,81h30.2c0-8.4-1.4-32.6,1.7-38.4c8.1-15.4,28.8-16.6,37.9-1.2c3.4,5.8,2.4,9.3,2.4,17.7
				C101.8,72.5,101.8,85.9,101.8,99.4z"/>
			<path class="st2" d="M4.3,177.3c2.7-2.9,29.4-17.5,34.8-20.6c6.1-3.5,32.2-19.5,36.4-20.1c-2.4-3.7-8-4-9.3-12.5
				c-1.1-7,2.2-12.3,6-14.8c11.6-7.6,23.6,0.9,23,14.6c3.1-1,4.1-2.2,7.4-3.7v63.4c6.2,0,9.9-0.5,14.7-0.9c5-0.4,10.3-0.9,14.5-0.9
				l-0.1-78.8l29.4-16.6c0-5.5,1.2-5.1-3.4-6.5c-2-0.6-5.3-1.2-8.3-1.7c-3.2-0.6-14.2-2.7-17.6-2.2l-29.3-2l-0.9-0.1
				c-13-0.4-41.9-1.4-53.7,0.1C37,75.7,9.6,76.8,0.3,81.2v86.9C0.1,174.7-1.4,176.9,4.3,177.3z"/>
			<path class="st3" d="M95.3,123.9c-2,9-4.6,7.5-9.4,12l5.8,22.2h-22l5.9-21.5c-4.2,0.6-30.3,16.6-36.4,20.1
				c-5.4,3.1-32.2,17.7-34.8,20.6c5,3.2,36.1,5.6,45.4,6.4c15.4,1.2,64.4,0.7,89.9-2.6l-2.9-80.8C133.5,101.7,98.4,122.9,95.3,123.9
				z"/>
			<path class="st3" d="M131.8,103.1l0.1,78.8c6.1-0.1,25.3-3.6,29.3-5.5V86.5L131.8,103.1z"/>
			<path class="st4" d="M75.6,136.6L69.7,158h22l-5.8-22.2c4.8-4.5,7.4-3,9.4-12c0.6-13.7-11.4-22.2-23-14.6
				c-3.8,2.4-7.1,7.8-6,14.8C67.6,132.6,73.2,132.8,75.6,136.6z"/>
		</g>
	</g>
</g>
</svg>
