<?xml version="1.0" encoding="utf-8"?>
<!-- Generator: Adobe Illustrator 22.0.1, SVG Export Plug-In . SVG Version: 6.00 Build 0)  -->
<svg version="1.1" id="Layer_1" xmlns="http://www.w3.org/2000/svg" xmlns:xlink="http://www.w3.org/1999/xlink" x="0px" y="0px"
	 viewBox="0 0 192 251.2" style="enable-background:new 0 0 192 251.2;" xml:space="preserve">
<style type="text/css">
	.st0{fill-rule:evenodd;clip-rule:evenodd;fill:#C38236;}
	.st1{fill-rule:evenodd;clip-rule:evenodd;fill:#EBBC59;}
	.st2{fill-rule:evenodd;clip-rule:evenodd;fill:#FFFFFF;}
	.st3{fill-rule:evenodd;clip-rule:evenodd;fill:#E19334;}
</style>
<g>
	<polygon class="st0" points="53.4,114 133.5,114 133.5,248.7 95,221.5 53.4,248.7 	"/>
	<path class="st1" d="M96.1,184c49.9,0,90.7-40.8,90.7-90.7c0-50-40.8-90.8-90.7-90.8C46,2.5,5.2,43.3,5.2,93.3
		C5.2,143.2,46,184,96.1,184L96.1,184z"/>
	<path class="st2" d="M96.1,166.9c40.5,0,73.6-33.1,73.6-73.6c0-40.6-33.1-73.7-73.6-73.7c-40.6,0-73.7,33.1-73.7,73.7
		C22.3,133.8,55.4,166.9,96.1,166.9L96.1,166.9z"/>
	<path class="st3" d="M96.1,153.8c33.2,0,60.5-27.3,60.5-60.5c0-33.3-27.3-60.5-60.5-60.5c-33.3,0-60.5,27.2-60.5,60.5
		C35.5,126.6,62.7,153.8,96.1,153.8L96.1,153.8z"/>
	<path class="st2" d="M96.1,141.9c26.8,0,48.6-21.8,48.6-48.6s-21.8-48.7-48.6-48.7S47.3,66.5,47.3,93.3S69.2,141.9,96.1,141.9
		L96.1,141.9z"/>
	<polygon class="st3" points="96.1,60.1 104.3,85.5 130.9,85.4 109.3,101.1 117.5,126.5 96.1,110.8 74.5,126.5 82.8,101.1 
		61.1,85.4 87.8,85.5 	"/>
</g>
</svg>
