<?xml version="1.0" encoding="utf-8"?>
<!-- Generator: Adobe Illustrator 22.0.1, SVG Export Plug-In . SVG Version: 6.00 Build 0)  -->
<svg version="1.1" id="Layer_1" xmlns="http://www.w3.org/2000/svg" xmlns:xlink="http://www.w3.org/1999/xlink" x="0px" y="0px"
	 viewBox="0 0 192 251.2" style="enable-background:new 0 0 192 251.2;" xml:space="preserve">
<style type="text/css">
	.st0{fill-rule:evenodd;clip-rule:evenodd;fill:#574D3A;}
	.st1{fill-rule:evenodd;clip-rule:evenodd;fill:#998152;}
	.st2{fill-rule:evenodd;clip-rule:evenodd;fill:#FFFFFF;}
	.st3{fill-rule:evenodd;clip-rule:evenodd;fill:#E6E6E6;}
	.st4{fill-rule:evenodd;clip-rule:evenodd;fill:#666666;}
	.st5{fill-rule:evenodd;clip-rule:evenodd;fill:#B3B3B3;}
	.st6{fill-rule:evenodd;clip-rule:evenodd;fill:#9099AB;}
	.st7{fill-rule:evenodd;clip-rule:evenodd;fill:#838EA1;}
	.st8{fill-rule:evenodd;clip-rule:evenodd;fill:#C38236;}
	.st9{fill-rule:evenodd;clip-rule:evenodd;fill:#EBBC59;}
	.st10{fill-rule:evenodd;clip-rule:evenodd;fill:#E19334;}
</style>
<g>
	<polygon class="st0" points="52,113.5 132.1,113.5 132.1,248.2 93.6,221 52,248.2 	"/>
	<path class="st1" d="M94.7,183.5c49.9,0,90.7-40.8,90.7-90.7c0-50-40.8-90.8-90.7-90.8C44.6,2,3.8,42.8,3.8,92.8
		C3.8,142.7,44.6,183.5,94.7,183.5L94.7,183.5z"/>
	<path class="st1" d="M185.4,92.8c0,50.1-40.6,90.7-90.7,90.7S3.8,143,3.8,92.8S44.5,2,94.7,2v90.8H185.4z"/>
	<path class="st2" d="M94.6,166.4c40.5,0,73.6-33.1,73.6-73.6c0-40.6-33.1-73.7-73.6-73.7c-40.6,0-73.7,33.1-73.7,73.7
		C20.9,133.3,54,166.4,94.6,166.4L94.6,166.4z"/>
	<path class="st1" d="M94.7,153.3c33.2,0,60.5-27.3,60.5-60.5c0-33.3-27.3-60.5-60.5-60.5c-33.3,0-60.5,27.2-60.5,60.5
		C34.1,126.1,61.3,153.3,94.7,153.3L94.7,153.3z"/>
	<path class="st3" d="M155.2,92.8c0,33.3-27.2,60.5-60.5,60.5c-33.4,0-60.5-27.2-60.5-60.5c0-33.4,27.1-60.5,60.5-60.5v60.5H155.2z"
		/>
	<path class="st2" d="M94.6,141.4c26.8,0,48.6-21.8,48.6-48.6s-21.8-48.7-48.6-48.7S45.9,66,45.9,92.8S67.8,141.4,94.6,141.4
		L94.6,141.4z"/>
	<polygon class="st1" points="94.7,59.6 102.9,85 129.5,84.9 107.9,100.6 116.1,126 94.7,110.3 73.1,126 81.4,100.6 59.7,84.9 
		86.4,85 	"/>
</g>
<g>
	<polygon class="st4" points="-505.4,368 -485.6,368 -485.6,401.4 -495.1,394.7 -505.4,401.4 	"/>
	<path class="st5" d="M-494.9,385.4c12.4,0,22.5-10.1,22.5-22.5c0-12.4-10.1-22.5-22.5-22.5c-12.4,0-22.5,10.1-22.5,22.5
		C-517.4,375.3-507.3,385.4-494.9,385.4L-494.9,385.4z"/>
	<path class="st2" d="M-494.9,381.2c10,0,18.2-8.2,18.2-18.2c0-10.1-8.2-18.3-18.2-18.3c-10.1,0-18.3,8.2-18.3,18.3
		C-513.1,373-505,381.2-494.9,381.2L-494.9,381.2z"/>
	<path class="st6" d="M-494.9,377.9c8.2,0,15-6.8,15-15c0-8.3-6.8-15-15-15c-8.3,0-15,6.7-15,15
		C-509.9,371.2-503.1,377.9-494.9,377.9L-494.9,377.9z"/>
	<path class="st3" d="M-494.9,362.9v-15c-8.3,0-15,6.7-15,15c0,8.3,6.7,15,15,15V362.9z"/>
	<path class="st2" d="M-494.9,375c6.6,0,12-5.4,12-12s-5.4-12.1-12-12.1c-6.6,0-12.1,5.4-12.1,12.1S-501.5,375-494.9,375L-494.9,375
		z"/>
	<polygon class="st7" points="-494.9,354.7 -492.8,361 -486.2,361 -491.6,364.9 -489.6,371.1 -494.9,367.2 -500.2,371.1 
		-498.2,364.9 -503.5,361 -496.9,361 	"/>
</g>
<g>
	<polygon class="st8" points="-448.5,368 -428.7,368 -428.7,401.4 -438.2,394.7 -448.5,401.4 	"/>
	<path class="st9" d="M-438,385.4c12.4,0,22.5-10.1,22.5-22.5c0-12.4-10.1-22.5-22.5-22.5c-12.4,0-22.5,10.1-22.5,22.5
		C-460.5,375.3-450.4,385.4-438,385.4L-438,385.4z"/>
	<path class="st2" d="M-438,381.2c10,0,18.2-8.2,18.2-18.2c0-10.1-8.2-18.3-18.2-18.3c-10.1,0-18.3,8.2-18.3,18.3
		C-456.2,373-448,381.2-438,381.2L-438,381.2z"/>
	<path class="st10" d="M-438,377.9c8.2,0,15-6.8,15-15c0-8.3-6.8-15-15-15c-8.3,0-15,6.7-15,15C-453,371.2-446.2,377.9-438,377.9
		L-438,377.9z"/>
	<path class="st2" d="M-438,375c6.6,0,12-5.4,12-12s-5.4-12.1-12-12.1c-6.6,0-12.1,5.4-12.1,12.1S-444.6,375-438,375L-438,375z"/>
	<polygon class="st10" points="-438,354.7 -435.9,361 -429.3,361 -434.7,364.9 -432.6,371.1 -438,367.2 -443.3,371.1 -441.3,364.9 
		-446.6,361 -440,361 	"/>
</g>
</svg>
