<?xml version="1.0" encoding="utf-8"?>
<!-- Generator: Adobe Illustrator 19.0.0, SVG Export Plug-In . SVG Version: 6.00 Build 0)  -->
<svg version="1.1" id="Layer_1" xmlns="http://www.w3.org/2000/svg" xmlns:xlink="http://www.w3.org/1999/xlink" x="0px" y="0px"
	 viewBox="0 0 53 59.2" style="enable-background:new 0 0 53 59.2;" xml:space="preserve">
<style type="text/css">
	.st0{fill-rule:evenodd;clip-rule:evenodd;fill:#4387E8;}
</style>
<g>
	<path class="st0" d="M43.3,49.4H49L43.3,55V49.4z M20.1,25.1c0-6.4,5.2-11.6,11.6-11.6s11.6,5.2,11.6,11.6s-5.2,11.6-11.6,11.6
		S20.1,31.5,20.1,25.1L20.1,25.1z M12.6,50l9.2-9.2c0.4-0.6,0.4-1.2,0-1.8l-1.2-1l2.4-2.2c2.4,2,5.4,3.2,8.8,3.2
		c7.8,0,13.9-6.2,13.9-13.9s-6.2-13.9-13.9-13.9c-7.6,0-13.9,6.2-13.9,13.9c0,3.4,1.4,6.6,3.4,9L19,36.5l-1-1
		c-0.2-0.2-0.6-0.4-0.8-0.4c-0.4,0-0.6,0.2-1,0.4L12.6,39V2.4h38V47h-8.6l0,0c-0.2,0-0.6,0.2-0.8,0.4c-0.2,0.2-0.4,0.4-0.4,0.8v8.6
		H12.6V50z M8,51.2c-0.6,0.6-1.6,0.6-2.2,0c-0.6-0.6-0.6-1.4,0-2l11.4-11.4l2,2.2L8,51.2z M51.8,0H11.4c-0.6,0-1.2,0.6-1.2,1.2v40.2
		l-6,6C3.4,48.2,3,49.2,3,50.2c0,1,0.4,2,1.2,2.8c0.6,0.6,1.6,1,2.6,1s2-0.4,2.8-1l0.6-0.8V58c0,0.6,0.6,1.2,1.2,1.2h30.7
		c0.4,0,0.6-0.2,0.8-0.4l9.8-9.8c0.2-0.2,0.4-0.4,0.4-0.8v-47C53,0.6,52.4,0,51.8,0L51.8,0z"/>
	<path id="XMLID_4_" class="st0" d="M25.3,26.3h13.1c0.6,0,1.2-0.4,1.2-1.2c0-0.6-0.6-1.2-1.2-1.2H25.3c-0.8,0-1.2,0.6-1.2,1.2
		C24.1,25.9,24.5,26.3,25.3,26.3L25.3,26.3z"/>
	<path id="XMLID_3_" class="st0" d="M39.7,29.7c0-0.6-0.6-1.2-1.2-1.2H25.3c-0.8,0-1.2,0.6-1.2,1.2c0,0.8,0.4,1.2,1.2,1.2h13.1
		C39.1,30.9,39.7,30.5,39.7,29.7L39.7,29.7z"/>
	<path id="XMLID_2_" class="st0" d="M25.3,21.7h5.2c0.6,0,1.2-0.6,1.2-1.2c0-0.8-0.6-1.2-1.2-1.2h-5.2c-0.8,0-1.2,0.4-1.2,1.2
		C24.1,21.1,24.5,21.7,25.3,21.7L25.3,21.7z"/>
	<path id="XMLID_1_" class="st0" d="M34.1,21.7h0.6c0.8,0,1.2-0.6,1.2-1.2c0-0.8-0.4-1.2-1.2-1.2h-0.6c-0.6,0-1.2,0.4-1.2,1.2
		C32.9,21.1,33.5,21.7,34.1,21.7L34.1,21.7z"/>
</g>
</svg>
