<?xml version="1.0" encoding="utf-8"?>
<!-- Generator: Adobe Illustrator 19.0.0, SVG Export Plug-In . SVG Version: 6.00 Build 0)  -->
<svg version="1.1" id="Layer_1" xmlns="http://www.w3.org/2000/svg" xmlns:xlink="http://www.w3.org/1999/xlink" x="0px" y="0px"
	 viewBox="0 0 150 150" style="enable-background:new 0 0 150 150;" xml:space="preserve">
<style type="text/css">
	.st0{fill:none;}
	.st1{fill:#7393CC;}
	.st2{fill:#E7E7E7;}
	.st3{fill:#4F77BA;}
	.st4{fill:#FDD0AA;}
</style>
<rect id="XMLID_42_" x="0" y="0.2" class="st0" width="150" height="150"/>
<g id="XMLID_40_">
	<path id="XMLID_60_" class="st1" d="M72.1,94.9h67.8V81.6c0-12.5-9.9-22.3-22.3-22.3H94.4c-12,0-22.3,9.9-22.3,22.3L72.1,94.9
		L72.1,94.9z"/>
	<path id="XMLID_59_" class="st2" d="M106.1,63.1c11.1,0,19.8-8.8,19.8-19.8s-8.8-19.8-19.8-19.8c-11,0-19.8,8.8-19.8,19.8
		S95,63.1,106.1,63.1L106.1,63.1z"/>
	<path id="XMLID_58_" class="st1" d="M10,94.9h67.8V81.6c0-12.5-9.9-22.3-22.3-22.3H32.3c-12,0-22.3,9.9-22.3,22.3V94.9z"/>
	<path id="XMLID_57_" class="st2" d="M43.9,63.1c11.1,0,19.8-8.8,19.8-19.8s-8.8-19.8-19.8-19.8c-11,0-19.9,8.8-19.9,19.8
		S32.9,63.1,43.9,63.1L43.9,63.1z"/>
	<path id="XMLID_56_" class="st3" d="M32.5,127h84.9v-16.9c0-15.6-12.5-28-28-28H60.5c-15.6,0-28,12.5-28,28V127z"/>
	<path id="XMLID_55_" class="st4" d="M75.2,89.5c13.5,0,25.1-11.6,25.1-25.5c0-13.5-11.6-25.1-25.1-25.1
		c-13.9,0-25.5,11.6-25.5,25.1C49.7,78,61.2,89.5,75.2,89.5L75.2,89.5z"/>
</g>
</svg>
